<svg width="736" height="284" viewBox="0 0 736 284" fill="none" xmlns="http://www.w3.org/2000/svg">
<path d="M294.9 138.9C284.9 138.9 276.8 147 276.8 157V157.2C277.1 161.3 276.1 164.6 273.9 166.9C270.5 170.5 265 171.3 263 171.4C262.7 171.4 229.7 171.4 229.7 171.4C229.6 171.4 222.2 171.3 218 166.9C215.8 164.6 214.8 161.3 215.1 157.2V92.4999V92.2999C214.8 88.1999 215.8 84.8999 218 82.5999C222.2 78.0999 229.6 78.0999 229.7 78.0999H259.8C261.3 78.0999 262.9 78.0999 264 78.0999C269.9 78.9999 275.9 82.6999 276.3 91.3999V91.4999C277.2 104.1 269.9 106.5 264.3 106.8C263.4 106.8 246.9 106.7 246.9 106.7C236.9 106.7 228.8 114.8 228.8 124.8C228.8 134.8 236.9 142.9 246.9 142.9H262.2C272.2 142.9 280.3 134.8 280.3 124.8C280.3 124.4 280.4 123.3 280.4 123C281.6 110.6 291.3 111.2 294.5 110.7H294.7C304.7 110.7 312.8 102.6 312.8 92.5999C312.8 82.5999 304.7 74.4999 294.7 74.4999H294.5C291.8 74.4999 281.3 73.9999 280.3 61.8999C280.3 61.1999 280.3 60.0999 280.3 59.6999C280.3 49.6999 272.2 41.8999 262.2 41.8999H229.7C219.7 41.8999 211.6 49.9999 211.6 59.8999C210.2 74.6999 198.5 74.5999 197.2 74.4999H197C187 74.4999 178.9 82.5999 178.9 92.5999V157C178.9 167 187 175.1 197 175.1H197.2C198.5 175 210.2 174.9 211.6 189.7C211.7 198.1 217.4 205.1 225.2 207.1C225.4 207.2 225.6 207.2 225.7 207.2C226 207.3 226.3 207.3 226.6 207.4C227.7 207.6 228.7 207.8 229.9 207.8H262.4C272.3 207.8 280.5 199.7 280.5 189.8C281.9 175 293.6 175.1 294.9 175.2H295.1C305.1 175.2 313.2 167.1 313.2 157.1C313.2 147.1 304.9 138.9 294.9 138.9Z" fill="black"/>
<path d="M539.3 73.9999H539.1C537.8 74.0999 526.1 74.1999 524.7 59.3999C524.6 52.0999 520.3 45.7999 514 42.9999C514 42.9999 511.3 41.3999 506.8 41.3999H474.3C464.3 41.3999 456.2 49.4999 456.2 59.3999C454.8 74.1999 443.1 73.9999 441.8 73.9999H441.6C431.6 73.9999 423.5 82.0999 423.5 92.0999V189.3C423.5 199.3 431.6 207.4 441.6 207.4C451.6 207.4 459.7 199.3 459.7 189.3V91.8999C459.4 87.7999 460.4 84.4999 462.6 82.1999C466.8 77.6999 474.2 77.6999 474.3 77.6999H506.5C506.6 77.6999 514 77.7999 518.2 82.1999C520.4 84.4999 521.4 87.7999 521.1 91.8999V104V157C521.1 157.1 521 164.5 516.6 168.7C514.3 170.9 511 171.9 506.9 171.6H506.7C496.7 171.6 488.6 179.7 488.6 189.7C488.6 199.7 496.7 207.8 506.7 207.8C516.7 207.8 524.8 199.7 524.8 189.7V189.5C524.7 188.2 524.6 176.5 539.4 175.1C549.3 175 557.4 166.9 557.4 157V136.6V92.0999C557.4 82.0999 549.3 73.9999 539.3 73.9999Z" fill="black"/>
<path d="M368.1 87.5C358.1 87.5 350 95.6 350 105.6V189.6C350 199.6 358.1 207.7 368.1 207.7C378.1 207.7 386.2 199.6 386.2 189.6V105.6C386.3 95.6 378.1 87.5 368.1 87.5Z" fill="black"/>
<path d="M710.8 139.2H710.6C710.1 139.2 697.6 139.8 696.2 124.5C696.2 124.4 696.2 124.3 696.2 124.3C695.9 114.6 687.8 106.7 678.1 106.7H645.5C644.7 106.7 637.9 106.4 633.9 102.2C631.7 99.9001 631 96.6001 631 92.5001V92.1001C631 88.0001 631.7 84.7001 633.9 82.4001C638.1 77.9001 645.5 77.9001 645.6 77.9001H678C688 77.9001 696.2 69.8001 696.2 59.7001C696.2 59.6001 696.2 59.5001 696.2 59.4001H696.3C696.1 49.6001 688.1 41.6001 678.2 41.6001H645.7C635.7 41.6001 627.6 49.7001 627.6 59.6001C626 74.2001 614.3 74.1001 613 74.0001H612.8C602.8 74.0001 594.7 82.1001 594.7 92.1001C594.7 102.1 602.8 110.2 612.8 110.2H613C613.5 110.2 625.9 109.6 627.4 124.8C627.5 134.7 635.6 142.8 645.5 142.8H678C678.5 142.8 685.5 142.9 689.7 147.3C691.9 149.6 692.6 152.3 692.6 156.6V157.2C692.6 161.3 691.9 164.7 689.7 167.1C685.6 171.5 678.3 171.7 678 171.7H645.7C645.6 171.7 638.2 171.6 634 167.2C631.8 164.9 630.8 161.7 631.1 157.6V157.2C631.1 147.2 623 139.1 613 139.1C603 139.1 594.9 147.2 594.9 157.2C594.9 167.2 603 175.3 613 175.3H613.3C614.9 175.3 626.2 175.1 627.6 189.9C627.7 199.8 635.8 207.9 645.7 207.9H678.2C688.2 207.9 696.3 199.8 696.3 189.8C696.3 189.4 696.3 188.9 696.2 188.5C698.2 175.2 709.2 175.3 710.4 175.4H710.6C720.6 175.4 728.7 167.3 728.7 157.3C728.9 147.3 720.8 139.2 710.8 139.2Z" fill="black"/>
<path d="M368.1 41.3999C358 41.3999 349.9 49.5999 349.9 59.5999C349.9 69.5999 358.1 77.7999 368.1 77.7999C378.1 77.7999 386.3 69.5999 386.3 59.5999C386.3 49.5999 378.2 41.3999 368.1 41.3999Z" fill="black"/>
<path d="M123.1 74H123C121.9 74.1 114.1 74.1001 110.4 66.3001C110.4 66.3001 110.4 66.2 110.3 66.2C110.2 66 110.1 65.7 110 65.5C110 65.4 109.9 65.3 109.9 65.2C109.8 65 109.7 64.8 109.7 64.6C109.6 64.4 109.6 64.3 109.5 64.1C109.4 63.9 109.4 63.8 109.4 63.6C109.3 63.4 109.3 63.2001 109.2 62.9001C109.2 62.8001 109.1 62.7 109.1 62.5C109 62.2 109 61.9 108.9 61.6C108.9 61.5 108.9 61.5001 108.9 61.4001C108.8 61.0001 108.8 60.7 108.7 60.3C108.7 60 108.6 59.6 108.6 59.3C108.5 52 104.2 45.7001 97.9 42.9001C97.9 42.9001 95 41.5001 92.3 41.4001C91.9 41.4001 90.9 41.3 90.7 41.3H58.2C48.2 41.3 40.1 49.4 40.1 59.3C38.6 74.1 26.9 74 25.6 74H25.4C15.4 74 7.3 82.1 7.3 92.1V157.3C7.3 167.3 15.4 175.4 25.4 175.4H25.6C27.3 175.4 37.6 175.2 39.8 188.2V190C38.4 204.8 27.5 204.1 25.3 204.4H25.1C14.4 204.8 7 212.6 7 222.6C7 232.6 15.1 240.7 25.1 240.7C25.5 240.7 25.7 240.7 26.2 240.7C29.2 240.8 38.5 242.3 39.7 255.3C39.8 263.7 45.5 270.7 53.3 272.7C53.5 272.8 53.7 272.8 53.8 272.8C54.1 272.9 54.4 272.9 54.7 273C55.8 273.2 56.9 273.4 58 273.4H90.5C100.4 273.4 108.6 265.3 108.6 255.4C110 240.6 121.7 240.7 123 240.8H123.2C133.2 240.8 141.3 232.7 141.3 222.7C141.3 212.7 133.2 204.6 123.2 204.6C113.2 204.6 105.1 212.7 105.1 222.7V222.9C105.4 227 104.4 230.3 102.2 232.6C98.8 236.2 93.3 237 91.3 237.1C91 237.1 58 237.1 58 237.1C57.9 237.1 50.5 237 46.3 232.6C44.1 230.3 43.4 227 43.4 222.9V220C43.6 217 44.6 214.5 46.3 212.7C49.7 209.1 55.2 207.9 57.2 207.7C57.4 207.7 90.5 207.7 90.5 207.7C100.5 207.7 108.6 200 108.6 190.1C110 175.3 121.7 175.4 123 175.5H123.2C133.2 175.5 141.3 167.4 141.3 157.4V92.1C141.3 82.1 133.1 74 123.1 74ZM102.1 167.2C97.9 171.7 90.5 171.7 90.4 171.7H58.2C58.1 171.7 50.7 171.6 46.5 167.2C44.3 164.9 43.3 161.6 43.6 157.5V157.3V92.1V91.9001C43.6 91.4001 43.6 90.9001 43.6 90.4001C43.6 87.0001 44.6 84.2 46.5 82.2C50 78.5 55.7 77.8 57.6 77.7C57.7 77.7 57.8 77.7 58 77.7H90.5C90.7 77.7 90.8 77.7 91 77.7C92.7 77.8 98.6 78.4 102.2 82.2C104.1 84.2 105.1 87.0001 105.1 90.4001C105.1 90.9001 105.1 91.4001 105.1 91.9001V92.1V157.3V157.5C105.3 161.6 104.3 164.9 102.1 167.2Z" fill="black"/>
<path d="M123.3 45.2999C133.4 45.2999 141.5 37.0999 141.5 27.0999C141.5 16.9999 133.3 8.8999 123.3 8.8999C113.3 8.8999 105.1 17.0999 105.1 27.0999C105.1 37.0999 113.2 45.2999 123.3 45.2999Z" fill="black"/>
<path d="M710.7 110.2C720.8 110.2 728.9 102 728.9 92C728.9 82 720.7 73.8 710.7 73.8C700.6 73.8 692.5 82 692.5 92C692.5 102 700.6 110.2 710.7 110.2Z" fill="black"/>
</svg>
