<svg width="1029" height="1018" viewBox="0 0 1029 1018" fill="none" xmlns="http://www.w3.org/2000/svg">
<g clip-path="url(#clip0_3556_709)">
<path d="M347.856 322.637C347.803 302.115 339.856 281.26 330.138 276.148L293.868 257.084C284.203 252.015 276.368 264.396 276.329 284.707V285.026V287.482C276.249 306.193 269.217 317.401 260.329 312.988C251.339 308.539 243.883 289.398 243.713 270.395L243.718 267.905C243.666 247.383 235.718 226.53 226.018 221.425L224.837 220.782C215.176 215.716 207.337 228.11 207.297 248.41V248.681V251.171C207.349 271.702 215.297 292.556 225.006 297.655L225.301 297.816C234.291 302.542 241.647 321.845 241.701 340.809V343.3C241.753 363.822 249.701 384.675 259.406 389.782L260.6 390.432C270.254 395.469 278.073 383.088 278.11 362.818C278.11 362.682 278.11 362.542 278.11 362.405V359.924V359.732C278.146 340.912 285.41 329.425 294.343 334.119L295.238 334.605C299.595 336.898 303.695 342.624 306.793 350.757C309.971 359.348 311.607 368.433 311.626 377.593V380.084C311.674 400.612 319.619 421.465 329.326 426.564L330.507 427.207C335.213 429.68 339.631 428.137 342.943 422.85C346.218 417.63 348.023 409.378 348.043 399.582V399.245L347.856 322.637Z" fill="black"/>
<path d="M330.267 829.542C338.604 834.078 345.412 823.484 345.445 805.916C345.478 788.348 338.722 770.366 330.385 765.831C322.048 761.296 315.244 771.9 315.211 789.469C315.178 807.038 321.93 825.007 330.267 829.542ZM330.376 770.642C337.453 774.492 343.191 789.765 343.163 804.679C343.135 819.593 337.353 828.598 330.276 824.748C323.199 820.898 317.46 805.626 317.488 790.712C317.516 775.798 323.298 766.788 330.376 770.638V770.642Z" fill="black"/>
<path d="M99.2578 780.357V780.28C99.275 771.147 97.684 762.082 94.5578 753.5C91.5048 745.339 87.4258 739.528 83.0518 737.132L82.7848 736.987C78.7848 734.804 75.0408 729.477 72.2258 721.987C69.3357 714.048 67.8679 705.662 67.8898 697.213V696.659C67.9127 687.499 66.3207 678.408 63.1868 669.801C60.1258 661.636 56.0498 655.836 51.6868 653.453L51.4278 653.312C47.4278 651.138 43.6798 645.812 40.8678 638.312C37.9792 630.384 36.5114 622.009 36.5318 613.572L36.6568 546.532V546.42C36.6918 527.564 29.4568 508.23 20.5018 503.299L20.1778 503.114C11.2078 498.251 3.87779 509.679 3.84679 528.624V528.64L3.59879 662.224V662.324C3.58282 671.45 5.17377 680.507 8.29879 689.081C11.3548 697.252 15.4308 703.052 19.8088 705.46L20.0708 705.603C28.3468 710.103 35.0528 727.955 35.0198 745.393C34.9868 762.831 28.2288 773.349 19.9538 768.847L19.6868 768.702C15.3418 766.347 11.2448 767.693 8.16379 772.508C5.08279 777.323 3.36879 785.001 3.35179 794.246V794.825C3.30479 813.735 10.5708 833.111 19.5598 838.025L19.8228 838.168C28.7928 843.03 36.1228 831.623 36.1578 812.682V812.635C36.1578 812.597 36.1578 812.561 36.1578 812.523C36.1908 795.172 42.8968 784.695 51.1708 789.135L82.9248 806.411C91.9018 811.277 99.2248 799.88 99.2568 780.928L99.2578 780.357Z" fill="black"/>
<path d="M211.723 556.593C220.003 560.967 226.782 550.331 226.831 532.884L226.931 478.562C226.931 461.134 220.216 443.182 211.945 438.535C207.204 434.978 203.925 429.317 202.19 421.709C201.328 417.868 200.892 413.945 200.89 410.009C200.89 409.826 200.89 409.644 200.89 409.463V409.168C200.914 391.568 194.138 373.56 185.79 369.018L107.858 326.633C107.726 326.552 107.595 326.481 107.464 326.41C99.2783 322.01 92.6063 332.434 92.5743 349.668V349.795C92.5533 367.395 99.3293 385.406 107.674 389.948L185.751 432.42L185.816 432.447C188.951 433.781 191.402 436.637 193.107 440.974C194.665 445.305 195.663 449.818 196.076 454.403C196.346 456.852 196.502 459.308 196.539 461.613L196.439 515.813C196.396 518.085 196.231 520.352 195.946 522.607C195.537 525.899 194.679 530.33 192.933 532.807C191.15 535.282 188.76 535.478 185.633 533.386L133.741 505.148C125.404 500.674 118.607 511.317 118.575 528.893V528.972C118.575 530.836 118.654 532.755 118.798 534.672V535.018L119.165 538.218C119.242 538.874 119.336 539.436 119.433 540.043L119.551 540.764L119.587 541.113L119.713 541.83C119.819 542.442 119.933 543.049 120.059 543.646L120.368 545.086C120.468 545.563 120.58 546.033 120.707 546.491L120.865 547.183C120.971 547.613 121.086 548.047 121.204 548.449L121.498 549.474L122.053 551.239L122.494 552.483L122.6 552.852L122.76 553.294C122.801 553.402 122.837 553.509 122.882 553.646C123.058 554.157 123.25 554.659 123.463 555.156L123.683 555.743C123.783 555.998 123.896 556.266 124.031 556.555L124.105 556.717L124.158 556.832C124.235 556.996 124.317 557.178 124.395 557.368L124.505 557.61L124.595 557.771L124.665 557.965V558.138L125.286 559.376C125.377 559.564 125.462 559.74 125.552 559.91L125.647 560.074C125.694 560.151 125.734 560.231 125.769 560.314L125.863 560.53L125.97 560.7C126.056 560.842 126.129 560.986 126.199 561.119L126.265 561.241C126.424 561.541 126.559 561.791 126.694 562.011L126.794 562.169L126.83 562.223C126.932 562.422 127.051 562.612 127.187 562.79L127.302 562.913L128.039 564.092L128.157 564.226C128.253 564.329 128.335 564.444 128.403 564.567L128.514 564.74C128.592 564.852 128.678 564.959 128.768 565.078L128.868 565.211C128.954 565.327 129.044 565.445 129.134 565.564L129.475 566L129.553 566.042C129.704 566.194 129.868 566.369 129.983 566.484C130.083 566.584 130.183 566.697 130.27 566.796C130.401 566.968 130.544 567.131 130.7 567.281C130.99 567.573 131.315 567.828 131.668 568.041V568.041C131.738 568.105 131.808 568.169 131.877 568.224C131.946 568.279 132.004 568.324 132.082 568.405L132.222 568.524C132.676 568.849 133.153 569.14 133.649 569.396L185.357 597.524C193.702 602.064 200.527 591.453 200.572 573.874V573.528C200.572 573.347 200.572 573.166 200.572 572.986C200.529 569.551 200.979 566.128 201.908 562.821C203.685 557.118 206.982 555.026 211.723 556.593ZM199.923 559.427C198.797 563.424 198.249 567.563 198.298 571.716C198.298 571.923 198.298 572.142 198.298 572.349V572.635C198.262 587.57 192.462 596.584 185.373 592.735L133.665 564.606C133.264 564.4 132.877 564.166 132.508 563.906C132.402 563.803 132.29 563.707 132.172 563.619L132.053 563.503L131.93 563.384L131.705 563.261C131.51 563.141 131.331 562.996 131.171 562.832C131.118 562.778 131.068 562.722 131.02 562.663L130.971 562.594C130.823 562.427 130.651 562.221 130.471 562.047C130.331 561.91 130.118 561.69 129.95 561.521L129.536 560.976L129.442 560.847C129.272 560.564 129.08 560.294 128.869 560.041L128.111 558.851L127.931 558.614C127.861 558.498 127.792 558.382 127.722 558.284C127.652 558.16 127.583 558.026 127.497 557.867L127.44 557.758C127.345 557.577 127.24 557.381 127.124 557.18C127.067 557.053 127.006 556.934 126.944 556.814L126.482 555.783C126.382 555.563 126.269 555.339 126.151 555.101C126.05 554.845 125.935 554.595 125.807 554.352C125.707 554.125 125.607 553.905 125.507 553.687L125.396 553.445L125.38 553.41L125.265 553.149C125.189 552.896 125.096 552.649 124.987 552.409L124.938 552.296C124.811 552.002 124.693 551.687 124.595 551.396C124.538 551.226 124.477 551.054 124.407 550.87V550.858C124.33 550.583 124.244 550.311 124.15 550.058L123.786 549.047L123.529 548.247C123.463 548.004 123.394 547.775 123.317 547.547L123.047 546.613C123.002 546.459 122.962 546.298 122.917 546.144C122.849 545.687 122.741 545.238 122.595 544.8C122.525 544.563 122.464 544.314 122.411 544.06L122.293 543.511L122.265 543.357C122.219 543.063 122.157 542.772 122.078 542.485C121.988 542.064 121.907 541.63 121.829 541.164L121.789 540.952C121.773 540.804 121.756 540.666 121.736 540.534L121.566 539.48C121.488 539.014 121.427 538.644 121.383 538.28C121.363 538.052 121.334 537.821 121.294 537.591L121.08 535.64L121.06 535.274C120.928 533.558 120.86 531.84 120.852 530.184V530.12C120.88 515.193 126.657 506.158 133.736 509.957L185.521 538.128C189.238 540.591 192.248 540.273 194.476 537.175V537.168C196.214 534.712 197.454 530.601 198.154 524.958C198.483 522.365 198.67 519.757 198.715 517.145L198.815 462.754C198.771 460.029 198.595 457.225 198.288 454.454C197.804 448.939 196.588 443.513 194.671 438.319C192.501 432.811 189.493 429.202 185.722 427.591L107.674 385.134C100.58 381.284 94.8263 365.985 94.8423 351.021V350.941C94.8693 336.341 100.517 327.486 107.454 331.209C107.565 331.269 107.676 331.329 107.811 331.409L185.772 373.819C192.866 377.67 198.624 392.98 198.6 407.919V408.155C198.6 408.381 198.6 408.608 198.6 408.836C198.607 413.573 199.135 418.296 200.175 422.918C201.638 429.339 204.833 438.07 211.76 443.223L211.814 443.26L211.904 443.309C218.928 447.251 224.641 462.509 224.638 477.317L224.538 531.622C224.498 546.451 218.738 555.485 211.708 551.774L211.551 551.698C204.639 549.381 201.414 554.611 199.927 559.427H199.923Z" fill="black"/>
<path d="M107.481 499.876C115.881 504.476 122.754 493.818 122.799 476.118V476.074C122.832 458.394 116.04 440.28 107.646 435.688C99.2642 431.137 92.3932 441.788 92.3282 459.447V459.51C92.2952 477.187 99.0932 495.287 107.481 499.876ZM94.6092 460.701C94.6622 445.688 100.509 436.63 107.637 440.501C114.772 444.408 120.55 459.801 120.522 474.829V474.876C120.482 489.931 114.637 498.989 107.494 495.086C100.351 491.183 94.5812 475.774 94.6092 460.731V460.701Z" fill="black"/>
<path d="M21.3253 381.893C30.8033 387.049 38.5463 374.993 38.5833 355.019L38.7093 287.373C38.7493 270.073 45.4673 259.616 53.6773 264.065C63.1423 269.188 70.8863 257.138 70.9353 237.19C70.9503 228.803 72.5163 221.754 75.3463 217.356C78.1763 212.958 81.9273 211.728 85.9073 213.901C94.1253 218.38 100.782 236.101 100.754 253.42C100.729 273.373 108.408 293.812 117.877 298.989L149.977 316.452C159.454 321.616 167.197 309.566 167.239 289.596V289.579C167.276 269.616 159.601 249.17 150.111 243.999C141.897 239.514 135.236 221.783 135.256 204.467V204.277C135.273 184.397 127.614 164.056 118.182 158.925L53.9323 123.973C44.4673 118.842 36.7323 130.902 36.6783 150.841L36.5543 217.977C36.5133 235.282 29.7953 245.734 21.5863 241.294C12.1163 236.16 4.37733 248.221 4.32833 268.16L4.19933 336.316C4.16533 356.287 11.8483 376.738 21.3253 381.893Z" fill="black"/>
<path d="M245.664 573.161L245.633 589.821C245.609 602.384 240.733 609.972 234.775 606.729L226.582 602.272C219.361 598.344 213.467 607.522 213.439 622.739L213.406 640.619C213.377 655.827 219.226 671.402 226.446 675.33L234.64 679.787C241.861 683.715 247.755 674.528 247.783 659.32L247.815 642.045C247.838 629.483 252.707 621.901 258.672 625.145L331.115 664.553C338.332 668.479 344.23 659.294 344.258 644.086L344.416 559.174C344.444 543.958 338.592 528.381 331.375 524.455L323.178 520.001C315.961 516.075 310.063 525.259 310.035 540.476L310.003 557.742C309.979 570.305 305.111 577.886 299.15 574.642L258.807 552.696C251.586 548.766 245.692 557.953 245.664 573.161Z" fill="black"/>
<path d="M21.7982 457.767C23.1807 462 23.834 466.437 23.7302 470.889C23.7302 471.519 23.7189 472.16 23.6962 472.812V473.345C23.6834 481.822 25.1626 490.236 28.0662 498.2C30.9022 505.783 34.6742 511.159 38.6872 513.341C46.9872 517.859 53.7712 507.232 53.8032 489.655C53.8352 472.078 47.1092 454.113 38.8032 449.595L38.6192 449.495C37.7122 449.105 29.7682 445.01 28.7952 422.688C28.7292 405.256 22.0142 387.47 13.7952 383L2.69222 376.959L2.57422 440.688L13.6802 446.73C14.2222 447.05 19.0712 450.086 21.7982 457.767ZM4.96522 383L13.7902 387.8C20.7772 391.6 26.4902 406.763 26.5202 421.6V421.81C27.4442 443.664 34.5942 452.538 38.6942 454.344L38.7942 454.398C45.8432 458.232 51.5522 473.498 51.5242 488.421C51.4962 503.344 45.7442 512.37 38.6982 508.535C35.2982 506.685 32.0982 502.121 29.6902 495.691C27.2208 488.908 25.9637 481.744 25.9762 474.526V474.284C26.0002 473.551 26.0129 472.829 26.0142 472.118C26.1256 466.44 25.2666 460.785 23.4742 455.397C20.1112 445.934 14.3842 442.334 13.7612 441.969L4.86622 437.131L4.96522 383Z" fill="black"/>
<path d="M177 714.446H176.992C173.086 712.313 169.416 707.105 166.666 699.784C163.851 692.064 162.417 683.911 162.427 675.695C162.427 675.489 162.427 675.282 162.427 675.074C162.427 674.866 162.427 674.659 162.427 674.45C162.299 654.709 154.611 634.801 145.285 630.074C140.768 627.781 136.543 629.351 133.392 634.491C130.313 639.52 128.617 647.357 128.6 656.599C128.6 656.818 128.6 657.04 128.6 657.261L128.477 723.739C128.449 743.378 136.005 763.492 145.331 768.573C153.397 772.961 159.931 790.363 159.9 807.361V807.37C159.868 824.37 153.278 834.621 145.208 830.231L113.662 813.07C104.344 808.001 96.7276 819.861 96.6916 839.505V839.513C96.6728 849.024 98.3315 858.464 101.592 867.399C104.776 875.864 109.015 881.883 113.532 884.34L176.617 918.658C185.934 923.709 193.55 911.85 193.595 892.228L193.842 759.28C193.872 739.645 186.316 719.532 177 714.446ZM191.318 890.974C191.278 907.958 184.688 918.221 176.63 913.855L113.545 879.537C109.635 877.41 105.969 872.196 103.215 864.873C100.393 857.143 98.9562 848.975 98.9716 840.747V840.738C99.0036 823.738 105.594 813.487 113.66 817.875L145.2 835.034C154.526 840.107 162.142 828.247 162.182 808.605V808.6C162.219 788.956 154.662 768.844 145.333 763.759C137.27 759.365 130.733 741.959 130.755 724.967L130.879 658.454C130.879 658.265 130.879 658.077 130.879 657.889C130.894 649.859 132.364 643.071 135.028 638.72C137.751 634.272 141.409 632.912 145.315 634.899C149.221 636.886 152.92 641.962 155.724 649.216C158.607 656.917 160.105 665.069 160.148 673.293C160.148 673.476 160.148 673.656 160.148 673.84C160.148 674.024 160.148 674.211 160.148 674.409C160.126 683.92 161.785 693.36 165.048 702.295C168.227 710.766 172.467 716.786 176.984 719.243H176.992C185.05 723.643 191.592 741.043 191.566 758.033L191.318 890.974Z" fill="black"/>
<path d="M307.453 514.78C310.723 509.696 312.533 501.55 312.553 491.849L312.671 428.501C312.709 407.768 305.011 386.695 295.513 381.528C290.913 379.028 286.574 380.586 283.299 385.936C280.024 391.286 278.222 399.73 278.199 409.751L278.082 473.099C278.045 493.123 285.744 513.626 295.246 518.799C299.851 521.299 304.187 519.875 307.453 514.78ZM280.365 474.34L280.482 410.992C280.499 402.225 282.082 394.827 284.932 390.166C287.77 385.531 291.522 384.166 295.502 386.327C303.745 390.811 310.421 409.173 310.388 427.26L310.27 490.608C310.254 499.03 308.685 506.095 305.851 510.516C303.017 514.937 299.251 516.161 295.257 513.988C287.014 509.504 280.333 491.719 280.365 474.34V474.34Z" fill="black"/>
<path d="M331.639 908.456C323.303 903.921 316.489 915.022 316.455 933.213L316.399 963.768C316.366 981.336 323.121 999.308 331.458 1003.84C339.795 1008.38 346.604 997.785 346.636 980.217L346.693 949.662C346.727 931.471 339.972 912.989 331.639 908.456Z" fill="black"/>
<path d="M256.72 684.881C246.985 679.638 239.051 692.05 239.013 712.543V712.655L238.943 774.655V774.83C238.91 792.492 232.09 803.23 223.694 798.754L223.563 798.682C213.872 793.436 205.952 805.782 205.898 826.192L205.809 873.745C205.749 906.322 218.278 939.665 233.738 948.075L245.907 954.694C261.366 963.104 273.994 943.447 274.055 910.87L274.388 731.701C274.401 711.132 266.473 690.126 256.72 684.881ZM271.774 909.627C271.718 939.559 260.119 957.62 245.916 949.894L233.747 943.274C219.547 935.547 208.035 904.916 208.09 874.983L208.179 827.431C208.224 809.662 215.123 798.918 223.554 803.487L223.698 803.566C233.344 808.692 241.182 796.374 241.22 776.082V775.874L241.29 713.884V713.801C241.324 695.924 248.232 685.115 256.715 689.678C265.215 694.257 272.115 712.554 272.106 730.462L271.774 909.627Z" fill="black"/>
<path d="M1014.46 179.723L977.571 160.08C967.731 154.847 944.514 152.767 925.702 155.411L925.408 155.453L923.133 155.773C905.733 158.188 884.812 156.333 875.558 151.567L874.958 151.242C865.037 145.842 841.198 143.668 821.829 146.39L819.522 146.715C800.643 149.43 793.322 155.915 803.187 161.177L804.387 161.825C814.242 167.05 837.423 169.125 856.21 166.481L856.577 166.429L858.884 166.105L859.076 166.078C876.507 163.628 898.019 165.559 907.103 170.396L907.997 170.883C912.426 173.243 913.297 175.932 910.447 178.461C907.597 180.99 901.354 183.05 892.912 184.261L890.605 184.585C871.715 187.299 864.391 193.785 874.266 199.045L875.444 199.686C880.234 202.237 888.293 204.12 898.156 204.995C907.868 205.859 917.646 205.644 927.31 204.355L927.622 204.311L998.139 194.187C1017.01 191.475 1024.33 184.986 1014.46 179.723Z" fill="black"/>
<path d="M372.509 220.247C388.786 217.96 395.245 212.409 386.909 207.876C378.573 203.343 358.549 201.513 342.271 203.8C325.993 206.087 319.543 211.637 327.88 216.172C336.217 220.707 356.232 222.535 372.509 220.247ZM332.33 215.547C325.248 211.695 330.739 206.983 344.557 205.041C358.375 203.099 375.378 204.65 382.457 208.502C389.536 212.354 384.047 217.066 370.229 219.008C356.411 220.95 339.407 219.4 332.33 215.547V215.547Z" fill="black"/>
<path d="M643.936 228.278L635.743 223.821C628.522 219.893 611.176 218.309 597.086 220.29L581.086 222.538C569.439 224.175 555.121 222.868 549.159 219.625L508.817 197.679C501.596 193.75 484.254 192.169 470.164 194.149L454.164 196.397C440.064 198.379 434.464 203.185 441.686 207.113L514.129 246.521C521.346 250.447 538.692 252.031 552.791 250.049L631.461 238.993C645.558 237.013 651.153 232.201 643.936 228.278ZM629.186 237.752L550.515 248.808C538.868 250.445 524.551 249.138 518.589 245.895L446.146 206.487C440.185 203.244 444.8 199.273 456.446 197.636L472.446 195.388C484.085 193.752 498.407 195.061 504.368 198.304L544.709 220.251C551.926 224.176 569.272 225.76 583.37 223.779L599.37 221.531C611.009 219.895 625.327 221.202 631.292 224.447L639.486 228.904C645.444 232.148 640.825 236.116 629.186 237.752V237.752Z" fill="black"/>
<path d="M314.607 97.0445L314.357 96.9075C306.102 92.4175 312.503 86.9225 328.676 84.6505L390.781 75.9215L390.89 75.9065C400.397 74.5705 407.169 72.1485 409.49 69.2515L409.498 69.2395C411.679 67.0315 410.816 64.6925 407.066 62.6525L406.874 62.5525C405.883 62.0735 397.748 57.7745 416.884 54.3935C432.884 52.0775 439.227 46.5715 431.009 42.1015L419.902 36.0605L360.849 44.3605L371.959 50.4045C372.012 50.4325 377.079 53.2935 373.928 55.7045C372.682 56.4062 371.298 56.8255 369.873 56.9325C369.084 57.0435 368.216 57.1265 367.289 57.1775C364.089 57.3515 360.989 57.6495 358.019 58.0665L234.254 75.4635L234.166 75.4755C216.68 77.9335 209.726 83.8955 218.672 88.7885L218.717 88.8135C226.566 93.0835 221.823 98.2065 207.687 100.733C206.687 100.912 205.666 101.075 204.624 101.221C196.849 102.26 188.987 102.479 181.167 101.874C172.167 101.192 164.585 99.4735 160.343 97.1735L160.076 97.0285C151.107 92.1495 129.558 90.1815 112.047 92.6425L111.398 92.7335L111.337 92.7425C102.885 93.9305 96.6037 95.9695 93.6637 98.4785C90.7237 100.988 91.4997 103.679 95.8477 106.055L96.1147 106.2C105.084 111.079 126.625 113.048 144.136 110.587L144.336 110.559C160.436 108.296 180.254 110.106 188.505 114.594L220.256 131.866C224.61 134.229 232.004 135.987 241.085 136.814C250.16 137.641 259.3 137.45 268.334 136.245L268.862 136.171L268.934 136.161C277.401 134.971 283.681 132.937 286.613 130.43C289.545 127.923 288.802 125.23 284.448 122.842L284.185 122.699C275.939 118.213 282.332 112.726 298.425 110.464L299.066 110.374C316.589 107.91 323.581 101.937 314.607 97.0445Z" fill="black"/>
<path d="M313.984 152.482C309.315 150.046 301.521 148.257 292.038 147.441C282.838 146.644 273.578 146.856 264.425 148.074C264.225 148.102 264.018 148.131 263.816 148.161L202.224 156.817C184.045 159.375 176.811 165.585 186.124 170.66C190.034 172.787 190.738 175.204 188.1 177.465C185.462 179.726 179.823 181.56 172.2 182.632C169.2 183.054 165.97 183.345 162.654 183.488L159.262 183.633L194.275 202.68L267.611 192.373C285.795 189.812 293.011 183.605 283.702 178.53C279.796 176.405 279.092 173.987 281.73 171.73C284.368 169.473 290.003 167.638 297.645 166.564L298.766 166.406C316.805 163.755 323.63 157.51 313.984 152.482ZM296.444 165.17L295.363 165.322C286.531 166.56 280.012 168.679 276.963 171.292C273.914 173.905 274.733 176.697 279.25 179.16C287.3 183.545 281.05 188.917 265.32 191.136L196.446 200.815L166.771 184.672C169.417 184.488 171.995 184.219 174.455 183.872C183.278 182.635 189.817 180.511 192.855 177.899C195.893 175.287 195.089 172.49 190.568 170.031C182.522 165.643 188.768 160.268 204.498 158.055L266.13 149.393L266.65 149.318C274.582 148.261 282.607 148.076 290.58 148.765C298.791 149.471 305.53 151.02 309.58 153.128C317.93 157.48 312.017 162.883 296.444 165.17Z" fill="black"/>
<path d="M788.735 197.96L758.674 181.607C748.836 176.255 725.743 174.018 707.191 176.626C688.639 179.234 681.548 185.712 691.386 191.064L721.448 207.417C730.948 212.586 753.771 214.67 772.323 212.062C790.875 209.454 798.237 203.129 788.735 197.96ZM770.046 210.824C753.946 213.087 734.14 211.278 725.893 206.792L695.832 190.439C687.249 185.77 693.371 180.129 709.472 177.867C725.573 175.605 745.645 177.567 754.228 182.232L784.289 198.585C792.536 203.071 786.147 208.561 770.046 210.824Z" fill="black"/>
<path d="M410.516 242.452L406.048 240.022C397.416 235.322 377.163 233.367 360.894 235.654C344.625 237.941 338.387 243.622 347.019 248.318L351.487 250.748C359.824 255.284 379.848 257.112 396.124 254.824C412.4 252.536 418.853 246.988 410.516 242.452ZM393.843 253.583C380.025 255.526 363.019 253.972 355.943 250.122L351.476 247.692C344.099 243.679 349.347 238.835 363.176 236.892C377.005 234.949 394.231 236.634 401.608 240.647L406.075 243.077C413.148 246.927 407.662 251.641 393.843 253.583Z" fill="black"/>
<path d="M471.386 91.5432C475.448 93.7582 482.36 95.4072 490.852 96.1882C499.343 96.9662 507.895 96.7921 516.347 95.6692L516.395 95.6622C524.325 94.5472 530.204 92.6402 532.951 90.2912C535.698 87.9422 534.987 85.4212 530.925 83.2062C522.535 78.6472 502.378 76.7962 485.963 79.0802L485.919 79.0862C469.535 81.3892 463.019 86.9752 471.386 91.5432Z" fill="black"/>
<path d="M677.74 152.358C673.902 149.651 674.201 147.358 678.617 145.542C681.478 144.481 684.453 143.759 687.482 143.393L687.994 143.323L688.258 143.286C704.551 140.986 711.006 135.427 702.658 130.886L678.323 117.741C668.863 112.628 675.447 106.252 693.005 103.526C693.485 103.453 693.97 103.381 694.475 103.311C703.643 102.099 712.915 101.874 722.13 102.64C722.296 102.653 722.461 102.666 722.619 102.68L722.919 102.708H722.939C732.127 103.459 741.369 103.224 750.506 102.008C769.006 99.4078 776.344 93.0998 766.866 87.9388C758.677 83.4668 765.05 77.9908 781.071 75.7328L781.239 75.7098C799.647 73.1228 806.962 66.8428 797.534 61.7098L733.244 26.7408C723.755 21.5958 700.99 19.5148 682.494 22.1088L620.285 30.8518C604.248 33.0998 584.499 31.2948 576.269 26.8288C566.769 21.6848 544.012 19.6068 525.519 22.1968L462.982 30.9858C453.818 32.2738 446.799 34.5858 443.711 37.3258C440.678 40.0258 441.611 42.8668 446.349 45.3258C455.998 50.3258 478.599 52.3258 496.742 49.7758L559.416 40.9668C575.461 38.7178 595.21 40.5228 603.448 44.9878C612.937 50.1328 635.698 52.2118 654.202 49.6218C662.472 48.5187 670.839 48.3453 679.146 49.1048C687.46 49.8658 694.234 51.4778 698.209 53.6468C706.415 58.1158 700.049 63.5858 684.017 65.8408C665.545 68.4488 658.203 74.7578 667.644 79.9098L687.785 90.8658C695.572 95.1028 690.307 100.19 675.796 102.446C675.388 102.509 674.967 102.57 674.551 102.629C665.352 103.854 656.033 103.901 646.821 102.768L646.061 102.359L645.14 102.488C644.245 102.33 643.331 102.188 642.38 102.05L641.599 101.944C631.966 100.712 622.214 100.739 612.587 102.025C605.129 103.073 599.468 104.851 596.634 107.033C593.816 109.207 594.052 111.572 597.306 113.699L644.075 139.199L644.116 139.216C647.595 140.867 648.635 142.403 647.194 143.78C645.757 145.18 642.094 146.269 639.258 146.942C637.374 147.392 635.344 147.79 633.294 148.107L583.069 155.165C580.841 155.45 578.494 155.671 576.052 155.823C571.412 156.161 566.752 156.133 562.115 155.737C557.138 155.217 553.365 154.113 550.594 152.359L498.715 124.132C490.315 119.601 470.283 117.784 454.015 120.07L453.927 120.083C452.205 120.331 450.544 120.617 448.993 120.936L448.673 120.981L446.251 121.581C445.804 121.694 445.458 121.801 445.079 121.914L444.362 122.132H444.374L443.753 122.315C443.331 122.447 442.945 122.583 442.604 122.715L441.734 123.048C441.465 123.145 441.203 123.26 440.949 123.394L440.532 123.562C440.294 123.668 440.073 123.778 439.86 123.898L439.374 124.16L439.244 124.243L439.18 124.274L438.574 124.657L438.088 125.023L438.053 125.059L438.009 125.085L437.609 125.358C437.417 125.493 437.242 125.652 437.087 125.83L436.887 125.999C436.805 126.079 436.732 126.168 436.667 126.263C436.639 126.296 436.614 126.333 436.594 126.372C436.552 126.431 436.51 126.496 436.456 126.56L436.38 126.694L436.353 126.729L436.306 126.769L436.138 126.793L435.974 127.158C435.96 127.19 435.944 127.222 435.925 127.252C435.891 127.316 435.861 127.377 435.831 127.443L435.825 127.516L435.792 127.602L435.728 127.738C435.725 127.796 435.711 127.854 435.686 127.907L435.667 127.957C435.634 128.053 435.614 128.155 435.61 128.257L435.616 128.315V128.351C435.594 128.395 435.586 128.445 435.592 128.494C435.598 128.543 435.618 128.589 435.65 128.627L435.701 129.165L435.76 129.241C435.779 129.261 435.794 129.284 435.803 129.31C435.812 129.335 435.816 129.363 435.814 129.39V129.469C435.832 129.531 435.856 129.592 435.885 129.65L435.911 129.702C435.933 129.764 435.955 129.831 435.986 129.897L436.101 130.097L436.175 130.137C436.255 130.23 436.351 130.331 436.431 130.413C436.475 130.459 436.516 130.509 436.552 130.561C436.609 130.671 436.685 130.77 436.776 130.853C436.991 131.071 437.238 131.256 437.508 131.399V131.399C437.553 131.44 437.6 131.478 437.649 131.514L437.699 131.558C437.732 131.587 437.773 131.62 437.806 131.658L437.893 131.727C438.324 132.013 438.77 132.276 439.229 132.514L490.961 160.656C499.306 165.195 519.353 167.026 535.647 164.736L535.975 164.69C536.14 164.665 536.305 164.641 536.475 164.618C540.25 164.108 544.058 163.874 547.866 163.918C555.794 164.003 562.681 165.287 568.356 167.734C576.756 172.22 596.767 174.034 612.964 171.766L663.285 164.694C679.4 162.401 685.879 156.873 677.74 152.358ZM661 163.451L610.687 170.522C596.933 172.444 579.922 170.906 572.745 167.072L572.626 167.013C564.375 163.435 554.69 162.597 548.006 162.526C543.412 162.471 538.82 162.751 534.266 163.364C534.058 163.392 533.852 163.422 533.646 163.454L533.373 163.492C519.531 165.438 502.5 163.882 495.411 160.026L443.679 131.884C443.24 131.645 442.891 131.455 442.579 131.241C442.534 131.2 442.488 131.159 442.443 131.123L442.355 131.048L442.285 130.988L442.217 130.907L441.984 130.78C441.843 130.71 441.716 130.614 441.608 130.499L441.562 130.457C441.533 130.426 441.51 130.389 441.494 130.349C441.425 130.24 441.343 130.139 441.25 130.049C441.174 129.964 441.05 129.834 440.961 129.733L440.949 129.721C440.922 129.67 440.898 129.617 440.879 129.562L440.843 129.472L440.809 129.409C440.817 129.272 440.778 129.138 440.699 129.026L440.673 128.518L440.616 128.389C440.618 128.343 440.615 128.297 440.608 128.252C440.611 128.198 440.623 128.146 440.642 128.096L440.653 128.052C440.685 127.981 440.708 127.908 440.722 127.832C440.749 127.788 440.773 127.742 440.793 127.695L441.035 127.355C441.088 127.269 441.135 127.181 441.187 127.087C441.263 127.017 441.322 126.931 441.359 126.835C441.413 126.76 441.459 126.689 441.508 126.62L441.558 126.549C441.586 126.502 441.62 126.46 441.658 126.422C441.754 126.362 441.839 126.286 441.907 126.196L441.946 126.157C442.042 126.047 442.151 125.95 442.27 125.867C442.325 125.831 442.37 125.794 442.423 125.753L442.478 125.712C442.601 125.649 442.716 125.571 442.82 125.481L443.208 125.181L443.562 124.952C443.675 124.898 443.783 124.836 443.886 124.766L444.344 124.516C444.423 124.471 444.498 124.43 444.585 124.389C444.853 124.319 445.109 124.208 445.343 124.061C445.472 123.989 445.606 123.928 445.743 123.878L446.077 123.747L446.145 123.729C446.339 123.672 446.528 123.598 446.709 123.509C446.955 123.419 447.225 123.325 447.544 123.224L447.695 123.174C447.779 123.154 447.875 123.13 447.974 123.101L448.779 122.854C449.046 122.774 449.279 122.702 449.544 122.634C449.71 122.6 449.873 122.557 450.034 122.506L451.527 122.144L451.843 122.086C453.222 121.799 454.694 121.542 456.228 121.324L456.302 121.313C470.117 119.372 487.137 120.913 494.27 124.762L546.05 152.931C549.35 155.009 554.173 156.39 560.402 157.031C565.989 157.533 571.608 157.581 577.202 157.173C579.957 156.999 582.637 156.746 585.266 156.41L635.651 149.329C638.085 148.953 640.404 148.504 642.527 147.992C645.876 147.198 650.227 145.892 651.997 144.167C653.824 142.419 652.635 140.522 648.463 138.533L601.875 113.133C599.147 111.333 598.961 109.333 601.344 107.503C603.727 105.673 608.544 104.146 614.868 103.258C622.814 102.197 630.861 102.145 638.819 103.104L639.283 103.165C640.517 103.395 641.805 103.61 643.133 103.801L643.586 103.867L643.707 103.883L644.766 104.091L645.006 104.058H645.03C655.593 105.334 666.274 105.27 676.82 103.865L677.086 103.828C677.481 103.773 677.872 103.713 678.257 103.655C695.114 101.035 701.257 95.1398 692.238 90.2368L672.1 79.2848C663.906 74.8158 670.272 69.3408 686.3 67.0798C704.784 64.4798 712.126 58.1708 702.665 53.0188C698.082 50.5188 690.265 48.6608 680.688 47.7858C671.111 46.9086 661.465 47.1075 651.931 48.3788C635.874 50.6268 616.125 48.8218 607.899 44.3578C598.399 39.2108 575.637 37.1328 557.149 39.7258L494.467 48.5348C478.735 50.7458 459.122 49.0148 450.759 44.6738C446.659 42.5478 445.859 40.0878 448.489 37.7468C451.175 35.3588 457.295 33.3468 465.265 32.2268L527.795 23.4388C543.832 21.1908 563.584 22.9928 571.818 27.4548C581.303 32.6038 604.068 34.6848 622.564 32.0908L684.764 23.3488C700.809 21.0998 720.564 22.9038 728.795 27.3698L793.081 62.3408C801.254 66.7868 794.92 72.2298 778.963 74.4718L778.787 74.4968C760.323 77.0968 752.977 83.4098 762.429 88.5688C770.644 93.0428 764.27 98.5138 748.229 100.769C740.313 101.823 732.306 102.027 724.346 101.376L724.084 101.354L723.442 101.301C713.027 100.442 702.549 100.7 692.188 102.07C691.636 102.148 691.088 102.23 690.554 102.311C670.347 105.448 663.03 112.501 673.885 118.367L698.211 131.513C705.305 135.372 699.819 140.097 685.985 142.047L685.769 142.078C685.556 142.106 685.344 142.134 685.133 142.164C681.497 142.607 677.926 143.477 674.492 144.755C670.758 146.288 667.492 148.943 673.142 152.892L673.278 152.972C680.19 156.811 674.679 161.511 661 163.451Z" fill="black"/>
<path d="M450.859 179.459L439.782 173.433C433.365 169.942 417.952 168.533 405.424 170.294L383.796 173.334C371.26 175.096 366.296 179.369 372.71 182.859L383.787 188.886C390.204 192.376 405.612 193.786 418.149 192.021L439.777 188.982C452.305 187.221 457.276 182.95 450.859 179.459Z" fill="black"/>
<path d="M806.444 126.851L806.92 127.11C815.187 131.61 835.053 133.421 851.202 131.152C867.351 128.883 873.751 123.377 865.484 118.88L865.008 118.621C856.737 114.121 836.876 112.31 820.734 114.578C804.592 116.846 798.173 122.352 806.444 126.851ZM823.012 115.817C836.701 113.893 853.551 115.431 860.562 119.246L861.038 119.504C868.05 123.319 862.614 127.989 848.925 129.913C835.236 131.837 818.378 130.3 811.366 126.485L810.89 126.227C803.878 122.412 809.314 117.742 823.012 115.817Z" fill="black"/>
<path d="M588.22 784.767C585.135 781.875 581.43 779.727 577.388 778.487C573.345 777.247 569.073 776.948 564.897 777.612H564.889C546.689 780.178 531.857 798.236 531.812 817.881L531.688 884.359C531.665 901.359 518.822 916.999 503.074 919.212H503.066C487.317 921.426 474.526 909.403 474.558 892.388C474.587 872.753 459.805 858.849 441.613 861.38L380.061 870.03C379.866 870.054 379.671 870.08 379.476 870.107C370.866 871.317 362.74 876 356.524 883.339C350.21 890.726 346.633 900.062 346.393 909.777C346.223 919.318 349.498 927.864 355.614 933.851C358.632 936.81 362.289 939.036 366.304 940.359C370.318 941.681 374.582 942.064 378.768 941.479C378.96 941.456 379.152 941.431 379.34 941.405C379.528 941.379 379.713 941.35 379.889 941.321H379.897C395.638 939.109 408.42 951.121 408.397 968.121V968.138C408.377 987.771 423.158 1001.67 441.342 999.138L564.518 981.826C582.71 979.244 597.542 961.186 597.603 941.548L597.85 808.6C597.86 799.083 594.44 790.618 588.22 784.767Z" fill="black"/>
<path d="M379.488 354.055L379.562 354.044L441.683 345.314L441.747 345.305L441.809 345.296C445.495 344.71 449.266 344.977 452.833 346.074C456.401 347.171 459.669 349.071 462.389 351.627C467.897 356.799 470.918 364.292 470.903 372.713V373.293C470.903 382.455 474.203 390.6 480.203 396.223C483.173 399 486.738 401.062 490.626 402.252C494.514 403.441 498.622 403.727 502.638 403.088H502.669L503.269 403.003H503.285C519.385 400.74 532.465 413.026 532.441 430.403V431.017C532.448 440.178 535.757 448.322 541.761 453.935C544.727 456.704 548.286 458.761 552.166 459.947C556.047 461.133 560.147 461.418 564.155 460.78L564.228 460.769L564.764 460.694H564.788C582.299 458.233 596.588 440.856 596.629 421.947L596.762 354.94C596.86 346.349 599.919 338.054 605.422 331.457C610.559 324.996 617.93 320.694 626.082 319.4L626.202 319.383C643.713 316.913 658.002 299.537 658.043 280.627V280.048C658.063 261.133 643.808 247.803 626.289 250.256L625.689 250.341C608.17 252.82 593.867 270.181 593.824 289.099V289.653C593.791 307.091 580.624 323.127 564.463 325.398C548.302 327.669 535.187 315.328 535.22 297.889V297.275C535.22 278.393 521.001 265.053 503.52 267.51L503.432 267.522L379.623 284.922C371.123 286.116 363.147 290.798 357.123 298.122C351.15 305.31 347.841 314.339 347.754 323.684V324.359C347.781 343.22 362.011 356.511 379.488 354.055Z" fill="black"/>
<path d="M995.2 441.171C992.206 438.36 988.608 436.272 984.681 435.068C980.755 433.864 976.605 433.576 972.549 434.225L972.458 434.237C968.748 434.82 964.954 434.549 961.365 433.443C957.776 432.337 954.487 430.426 951.748 427.856C946.199 422.646 943.148 415.097 943.162 406.563V406.01C943.205 386.962 928.888 373.476 911.193 375.946L848.687 384.73C831.048 387.201 816.641 404.698 816.587 423.798V424.352C816.57 441.866 803.35 457.986 787.065 460.292L725.585 468.933C717.03 470.144 708.985 474.844 702.921 482.213C696.905 489.468 693.574 498.575 693.49 508V508.562C693.474 526.076 680.254 542.196 663.977 544.493L601.463 553.278C583.809 555.742 569.417 573.254 569.363 592.312L569.238 659.836C569.195 678.875 583.513 692.37 601.208 689.892L601.721 689.82H601.752C610.283 688.62 618.325 683.904 624.376 676.553C630.396 669.299 633.731 660.191 633.818 650.765V650.194C633.887 641.545 636.938 633.185 642.455 626.524C647.624 619.961 655.075 615.584 663.324 614.265L725.853 605.477H725.877C743.516 602.998 757.899 585.504 757.951 566.412V565.85C757.968 548.335 771.187 532.224 787.464 529.919L787.985 529.846C796.54 528.653 804.585 523.935 810.641 516.558C816.66 509.307 819.992 500.202 820.075 490.779V490.217C820.145 481.564 823.198 473.2 828.72 466.537C833.892 459.969 841.346 455.59 849.6 454.27L910.551 445.704C914.274 445.112 918.083 445.378 921.688 446.482C925.293 447.585 928.598 449.497 931.351 452.072C936.899 457.291 939.951 464.832 939.937 473.365V473.927C939.92 483.152 943.228 491.365 949.256 497.044C952.251 499.854 955.849 501.941 959.775 503.145C963.702 504.35 967.851 504.639 971.906 503.991L972.419 503.919C980.926 502.732 989.019 498.008 995.075 490.63C1001.1 483.382 1004.43 474.275 1004.51 464.852V464.29C1004.54 455.064 1001.23 446.85 995.2 441.171Z" fill="black"/>
<path d="M971.545 634.672C953.713 637.178 939.177 654.872 939.145 674.12C939.113 693.368 953.587 706.993 971.418 704.487C989.249 701.981 1003.79 684.287 1003.83 665.03C1003.86 645.773 989.376 632.166 971.545 634.672Z" fill="black"/>
<path d="M971.732 534.122C953.901 536.628 939.365 554.322 939.332 573.57C939.299 592.818 953.774 606.434 971.606 603.929C989.438 601.424 1003.98 583.729 1004.02 564.479C1004.05 545.229 989.563 531.616 971.732 534.122Z" fill="black"/>
<path d="M700.486 768.608C682.655 771.114 668.119 788.808 668.086 808.057C668.053 827.306 682.528 840.921 700.359 838.415C718.19 835.909 732.726 818.215 732.759 798.967C732.792 779.719 718.317 766.1 700.486 768.608ZM700.365 833.617C684.985 835.778 672.506 824.031 672.537 807.431C672.568 790.831 685.097 775.577 700.477 773.416C715.857 771.255 728.344 783.001 728.313 799.592C728.282 816.183 715.745 831.455 700.365 833.617Z" fill="black"/>
<path d="M993.569 728.757C990.484 725.867 986.778 723.721 982.736 722.482C978.693 721.244 974.422 720.946 970.246 721.611H970.238C952.038 724.169 937.197 742.237 937.161 761.871L937.037 828.349C937.006 845.356 924.171 860.989 908.423 863.203H908.415C892.666 865.416 879.875 853.393 879.907 836.377C879.927 816.736 865.146 802.832 846.946 805.389L785.362 814.045C767.154 816.604 752.321 834.662 752.277 854.315C752.233 873.968 767.014 887.873 785.229 885.315C800.994 883.134 813.769 895.115 813.738 912.115V912.133C813.725 931.764 828.498 945.67 846.69 943.133L969.866 925.822C988.05 923.249 1002.89 905.181 1002.94 885.544L1003.19 752.596C1003.21 743.082 999.788 734.617 993.569 728.757ZM998.5 886.165C998.452 903.148 985.61 918.782 969.877 921.011L846.7 938.322C830.968 940.516 818.177 928.484 818.192 911.506V911.488C818.221 891.846 803.447 877.949 785.239 880.508H785.232C769.483 882.721 756.692 870.689 756.732 853.69C756.772 836.691 769.606 821.058 785.354 818.844L846.938 810.189C862.687 807.984 875.478 820.017 875.454 837.022C875.426 856.664 890.199 870.57 908.407 868.011H908.415C926.615 865.444 941.456 847.377 941.492 827.724L941.616 761.255C941.647 744.255 954.482 728.624 970.23 726.41H970.238C973.851 725.836 977.547 726.095 981.044 727.167C984.541 728.24 987.746 730.097 990.415 732.598C995.795 737.668 998.761 744.988 998.746 753.218L998.5 886.165Z" fill="black"/>
<path d="M396.399 584.069L395.926 584.136C377.574 586.715 362.613 604.929 362.576 624.729L362.332 760.641C362.383 780.384 377.317 794.432 395.632 791.961L396.097 791.896C414.449 789.316 429.41 771.102 429.447 751.303L429.506 719.469L429.606 719.455L429.674 682.927C429.706 665.773 442.661 649.993 458.562 647.758L459.026 647.693C477.378 645.114 492.339 626.908 492.376 607.1V606.59C492.408 589.437 505.363 573.656 521.263 571.422L521.736 571.355C540.08 568.777 555.036 550.571 555.078 530.764V530.15C555.115 510.342 540.213 496.333 521.869 498.911L458.629 507.8C442.736 510.034 429.829 497.889 429.858 480.735C429.894 460.928 415.001 446.91 396.649 449.489L396.176 449.555C377.824 452.134 362.863 470.349 362.826 490.155V490.665C362.79 510.465 377.691 524.482 396.043 521.903L396.515 521.836C412.408 519.603 425.315 531.748 425.287 548.901C425.259 566.054 412.292 581.836 396.399 584.069ZM429.732 548.276C429.769 528.469 414.875 514.45 396.523 517.029L396.051 517.096C380.158 519.329 367.251 507.196 367.279 490.04V489.529C367.311 472.367 380.279 456.595 396.167 454.361L396.639 454.295C412.532 452.061 425.439 464.195 425.411 481.359C425.374 501.167 440.268 515.177 458.619 512.598L521.862 503.71C537.754 501.476 550.662 513.621 550.633 530.775V531.388C550.601 548.542 537.633 564.323 521.746 566.557L521.273 566.623C502.921 569.202 487.96 587.408 487.923 607.216V607.726C487.892 624.879 474.937 640.66 459.036 642.894L458.571 642.96C440.219 645.539 425.258 663.753 425.221 683.552L425.162 715.283L425.062 715.296L424.999 751.929C424.968 769.082 412.012 784.862 396.112 787.097L395.655 787.161C379.787 789.296 366.828 777.115 366.78 760.007L367.032 624.107C367.064 606.953 380.032 591.172 395.92 588.938L396.392 588.872C414.742 586.289 429.699 568.084 429.732 548.276V548.276Z" fill="black"/>
<path d="M993.456 198.341L808.7 224.308C790.509 226.882 775.668 244.941 775.615 264.578L775.492 331.056C775.463 350.698 790.237 364.604 808.437 362.046H808.444C817.256 360.808 825.553 355.934 831.806 348.33C838.004 340.861 841.435 331.482 841.521 321.777C841.569 304.794 854.411 289.16 870.144 286.931L931.736 278.275C947.476 276.08 960.268 288.112 960.244 305.092C960.216 324.734 974.989 338.64 993.189 336.082H993.197C1011.4 333.524 1026.24 315.456 1026.28 295.812L1026.41 229.332C1026.43 209.7 1011.65 195.8 993.456 198.341ZM1021.82 296.436C1021.79 313.436 1008.95 329.06 993.201 331.273H993.193C977.452 333.485 964.661 321.462 964.693 304.464C964.713 284.832 949.932 270.927 931.74 273.464L870.148 282.12C851.964 284.693 837.124 302.761 837.071 322.398C836.998 330.796 834.027 338.911 828.659 345.371C823.65 351.722 816.436 355.957 808.448 357.235H808.44C792.7 359.448 779.909 347.424 779.94 330.426L780.063 263.948C780.111 246.965 792.945 231.332 808.685 229.103L993.447 203.14C1009.19 200.945 1021.97 212.978 1021.96 229.956L1021.82 296.436Z" fill="black"/>
<path d="M846.422 737.683C855.402 736.422 863.868 731.317 870.242 723.298C876.588 715.361 880.076 705.516 880.142 695.354L880.261 632.001C880.298 611.977 865.237 597.809 846.685 600.417C837.73 601.675 829.239 606.637 822.874 614.394C816.558 622.007 813.061 631.565 812.974 641.457L812.856 704.806C812.818 725.543 827.87 740.291 846.422 737.683ZM817.302 704.183L817.419 640.835C817.494 632.25 820.532 623.955 826.019 617.352C831.138 610.857 838.513 606.526 846.679 605.217C862.779 602.954 875.851 615.25 875.819 632.628L875.701 695.976C875.644 704.86 872.599 713.466 867.055 720.408C861.516 727.358 854.196 731.793 846.434 732.883C830.338 735.147 817.268 722.272 817.299 704.185L817.302 704.183Z" fill="black"/>
</g>
<defs>
<clipPath id="clip0_3556_709">
<rect width="1028.39" height="1017.14" fill="white"/>
</clipPath>
</defs>
</svg>
