<svg width="582" height="615" viewBox="0 0 582 615" fill="none" xmlns="http://www.w3.org/2000/svg">
<g clip-path="url(#clip0_39_37)">
<path d="M274.779 110.568L274.686 110.661L273.825 111.522C270.404 114.956 267.617 118.967 265.591 123.371C263.713 127.564 263.105 131.24 263.876 133.718L263.922 133.875C265.396 138.618 261.266 147.836 254.727 154.411L253.866 155.272C246.788 162.386 242.326 172.344 243.916 177.466L244.104 178.103C245.702 183.184 252.689 181.604 259.712 174.607C259.76 174.559 259.805 174.514 259.85 174.468L260.708 173.611L260.78 173.538C267.297 167.046 273.779 165.591 275.244 170.3L275.386 170.777C276.1 173.077 275.537 176.475 273.797 180.357C271.925 184.427 269.349 188.134 266.189 191.308L265.328 192.169C258.246 199.284 253.783 209.241 255.376 214.36L255.563 214.991C257.149 220.086 264.14 218.516 271.18 211.5L271.294 211.386L297.723 184.839C304.801 177.725 309.264 167.766 307.671 162.638L301.723 143.507C300.135 138.418 293.161 139.966 286.12 146.979L285.994 147.106L285.148 147.952C278.65 154.394 272.343 155.838 270.796 151.239C270.035 148.99 270.554 145.615 272.255 141.743C274.096 137.669 276.642 133.953 279.778 130.767L280.641 129.908C287.719 122.794 292.181 112.836 290.592 107.717L290.406 107.086C288.817 101.995 281.821 103.57 274.788 110.575" fill="#292929"/>
<path d="M125.02 334.949C118.934 341.012 115.056 349.56 116.37 354.011C117.684 358.462 123.701 357.152 129.787 351.089C135.873 345.026 139.755 336.473 138.44 332.022C137.125 327.572 131.106 328.886 125.02 334.949Z" fill="#292929"/>
<path d="M107.553 137.109L107.547 137.115L61.2751 183.217L61.2484 183.244C54.7071 189.761 50.5266 198.955 51.9299 203.77L51.9708 203.91C53.2763 208.328 49.4226 216.819 43.3817 222.837C37.3411 228.855 31.3676 230.155 30.0629 225.738L30.0208 225.595C28.5999 220.811 22.1204 222.223 15.5421 228.78L15.3267 228.996C12.1589 232.151 9.57161 235.841 7.68354 239.894C5.92099 243.771 5.32243 247.19 6.00787 249.522L6.04921 249.662C6.7378 251.981 8.61899 252.93 11.3486 252.334C14.0781 251.738 17.3274 249.669 20.4978 246.51L20.5605 246.447C23.4654 243.553 26.4405 241.655 28.9426 241.098C31.4598 240.538 33.1954 241.4 33.8419 243.551L38.8479 260.502C40.2689 265.285 46.7487 263.873 53.3004 257.343L53.5302 257.113C56.6941 253.961 59.2784 250.277 61.1648 246.228C62.9311 242.351 63.5297 238.931 62.8539 236.619L62.8039 236.448C62.1754 234.311 62.723 231.174 64.339 227.611C66.0818 223.868 68.4722 220.462 71.4 217.551L71.6184 217.333C74.7849 214.179 77.3709 210.491 79.2579 206.439C81.0225 202.558 81.6186 199.143 80.9339 196.811L80.8932 196.672C79.5957 192.267 83.4352 183.807 89.4775 177.784L89.4807 177.781L112.704 154.644L112.745 154.603C119.278 148.095 123.458 138.911 122.069 134.105L122.018 133.935C120.598 129.15 114.118 130.563 107.551 137.108" fill="#292929"/>
<path d="M200.099 105.923L200.065 105.958C193.972 112.036 190.088 120.606 191.404 125.063L203.715 166.745L203.728 166.776C204.351 168.322 204.211 170.156 203.301 172.245C202.342 174.282 201.126 176.187 199.684 177.915C198.931 178.855 198.135 179.759 197.351 180.568L178.576 199.274C177.776 200.045 176.935 200.772 176.057 201.453C174.777 202.45 172.945 203.688 171.491 203.935C170.016 204.178 169.122 203.421 168.764 201.614L160.584 173.909C159.249 169.479 153.222 170.806 147.133 176.872L147.104 176.902C146.461 177.548 145.823 178.237 145.21 178.95L145.09 179.07L144.11 180.303C143.91 180.557 143.746 180.786 143.57 181.03L143.364 181.319L143.255 181.45L143.048 181.745C142.878 181.989 142.706 182.239 142.543 182.489L142.152 183.094C142.021 183.293 141.898 183.494 141.784 183.699L141.599 183.991C141.487 184.176 141.376 184.366 141.278 184.545L141.025 185.002L140.607 185.804L140.138 186.761C140.114 186.813 140.094 186.86 140.061 186.923C139.946 187.16 139.838 187.4 139.738 187.651L139.657 187.813L139.61 187.929C139.557 188.052 139.503 188.184 139.449 188.328L139.422 188.407L139.403 188.462C139.373 188.543 139.338 188.634 139.3 188.729L139.252 188.854L139.227 188.94L139.184 189.032L139.124 189.092L138.911 189.734C138.879 189.825 138.848 189.916 138.818 190.011L138.794 190.1C138.783 190.144 138.77 190.187 138.754 190.228L138.712 190.333L138.689 190.429C138.67 190.507 138.645 190.581 138.626 190.647L138.605 190.72C138.556 190.878 138.516 191.009 138.487 191.133L138.467 191.222L138.463 191.248C138.428 191.353 138.403 191.461 138.387 191.57L138.385 191.655L138.232 192.315L138.23 192.402C138.225 192.471 138.213 192.54 138.194 192.608L138.173 192.706C138.161 192.771 138.153 192.838 138.144 192.912L138.134 192.992C138.123 193.062 138.111 193.137 138.101 193.212L138.071 193.475L138.083 193.517C138.083 193.621 138.082 193.736 138.082 193.815C138.082 193.894 138.074 193.961 138.07 194.025C138.056 194.13 138.05 194.235 138.051 194.341C138.05 194.543 138.075 194.743 138.123 194.939C138.125 194.985 138.127 195.031 138.132 195.074C138.137 195.117 138.142 195.153 138.141 195.21L138.147 195.297C138.192 195.567 138.256 195.832 138.34 196.092L146.493 223.696C147.808 228.152 153.837 226.843 159.931 220.78L160.05 220.66C160.113 220.598 160.175 220.536 160.237 220.474C161.41 219.271 162.75 218.243 164.214 217.42C166.8 216.055 168.663 216.472 169.76 218.652C171.11 223.027 177.131 221.694 183.181 215.678L201.998 196.93C208.024 190.904 211.91 182.375 210.656 177.906C210.247 175.039 211.071 171.948 213.101 168.718C214.13 167.092 215.336 165.585 216.695 164.225C216.759 164.162 216.822 164.099 216.884 164.036L216.986 163.934C223.08 157.857 226.964 149.287 225.647 144.831L213.357 103.23C213.339 103.156 213.319 103.086 213.298 103.016C212.662 100.902 210.936 100.046 208.436 100.599C205.937 101.153 202.989 103.047 200.099 105.923Z" fill="#292929"/>
<path d="M162.071 143.789L162.05 143.81C159.086 146.763 156.665 150.215 154.898 154.008C153.249 157.638 152.69 160.837 153.328 163.011C153.966 165.184 155.719 166.083 158.275 165.532C160.831 164.982 163.869 163.051 166.839 160.092L166.854 160.077C169.818 157.125 172.24 153.672 174.006 149.879C175.659 146.249 176.214 143.053 175.58 140.873C174.255 136.401 168.197 137.709 162.072 143.789" fill="#292929"/>
<path d="M197.78 47.224L174.169 70.7449C167.251 77.6374 162.836 87.365 164.331 92.4243C165.826 97.484 172.671 95.9929 179.59 89.0996L203.023 65.7532C209.019 59.7857 214.956 58.4905 216.257 62.8697C217.759 67.9137 224.602 66.4251 231.517 59.5446C234.422 56.6505 237.401 54.7538 239.9 54.212C242.399 53.6697 244.121 54.5412 244.746 56.6687C246.038 61.0594 242.213 69.4879 236.215 75.4668C229.308 82.3569 224.896 92.0791 226.38 97.1437L231.441 114.281C232.164 116.732 234.148 117.737 237.03 117.112C239.911 116.486 243.344 114.302 246.696 110.963L246.701 110.957C250.05 107.622 252.783 103.722 254.776 99.4366C256.637 95.3411 257.262 91.7362 256.539 89.2755C255.25 84.8846 259.077 76.4505 265.072 70.4702L265.137 70.4047C272.017 63.5368 276.402 53.8552 274.914 48.8201L264.784 14.5202C263.286 9.47296 256.441 10.9686 249.528 17.8441L226.273 41.0141C220.275 46.9833 214.339 48.2747 213.035 43.9008C211.536 38.8511 204.69 40.3457 197.779 47.223" fill="#292929"/>
<path d="M147.475 242.122L141.285 248.29C136.013 253.541 132.65 260.949 133.789 264.803L135.081 269.178C136.219 273.033 141.434 271.894 146.705 266.642L152.686 260.683C157.037 256.347 161.342 255.41 162.283 258.594L173.705 297.268C174.843 301.12 180.059 299.984 185.327 294.735L214.743 265.428C220.012 260.179 223.374 252.769 222.236 248.917L220.942 244.543C219.804 240.689 214.589 241.826 209.321 247.075L203.337 253.037C198.985 257.372 194.681 258.31 193.741 255.127L187.38 233.59C186.242 229.735 181.027 230.874 175.759 236.122L169.988 241.872C165.636 246.208 161.326 247.145 160.388 243.964L159.096 239.59C157.957 235.735 152.746 236.871 147.475 242.123" fill="#292929"/>
<path d="M159.601 84.2718L137.525 106.266L139.276 112.195C139.353 112.494 139.979 115.217 138.268 118.819C137.282 120.761 135.974 122.521 134.399 124.024C134.181 124.242 133.955 124.46 133.722 124.677L133.555 124.845C130.612 127.776 128.209 131.201 126.454 134.966C124.816 138.566 124.258 141.731 124.891 143.874C126.199 148.306 132.219 146.977 138.307 140.911C144.396 134.844 148.282 126.306 146.972 121.873L146.943 121.774C146.765 121.326 145.433 117.161 152.816 109.109C158.82 103.059 162.648 94.5873 161.353 90.2022L159.601 84.2718Z" fill="#292929"/>
<path d="M32.1749 276.701L32.1721 276.704C25.3673 283.484 21.0254 293.049 22.4955 298.028L32.442 331.705C33.9169 336.673 40.6507 335.206 47.451 328.437L93.5046 282.554C100.305 275.773 104.643 266.209 103.179 261.225C101.912 256.914 105.664 248.643 111.539 242.793L111.542 242.79C111.613 242.718 111.684 242.647 111.757 242.575C111.828 242.503 111.9 242.431 111.972 242.359C115.241 239.057 117.899 235.201 119.823 230.972C121.601 226.952 122.158 223.444 121.389 221.089C120.619 218.733 118.616 217.816 115.749 218.504C112.955 219.176 109.663 221.287 106.478 224.46C106.392 224.546 106.306 224.633 106.219 224.72L83.191 247.662C76.3903 254.444 72.0486 264.01 73.5163 268.992C74.1321 271.077 73.6002 274.147 72.0171 277.631C70.3202 281.28 67.993 284.601 65.1422 287.44L65.1391 287.443C62.2877 290.284 59.3644 292.145 56.9127 292.677C54.4614 293.209 52.7711 292.355 52.1536 290.269L47.1805 273.431C45.7118 268.456 38.9796 269.922 32.1749 276.701Z" fill="#292929"/>
<path d="M235.859 195.046L213.915 216.91C206.979 223.82 202.552 233.571 204.048 238.645C205.545 243.72 212.411 242.222 219.347 235.31L241.291 213.448C248.473 206.292 253.097 196.344 251.6 191.274C250.102 186.204 243.039 187.891 235.857 195.047" fill="#292929"/>
<path d="M75.7463 385.081L65.1619 395.626C59.0789 401.686 55.1977 410.239 56.5132 414.689C57.8248 419.141 63.8467 417.829 69.929 411.769L80.5138 401.223C86.8151 394.946 90.8704 386.22 89.5563 381.772C88.2426 377.323 82.0477 378.803 75.7463 385.081Z" fill="#292929"/>
<path d="M74.5347 309.863L58.0619 326.274C46.777 337.517 39.5808 353.378 42.0179 361.631L43.937 368.128C46.3745 376.38 57.5376 373.95 68.8225 362.707L120.27 311.45L130.887 300.872C134.33 297.435 137.139 293.417 139.185 289.002C141.088 284.79 141.72 281.088 140.967 278.577C140.214 276.065 138.163 275.04 135.19 275.7C132.232 276.354 128.713 278.599 125.277 282.021L125.239 282.06L103.781 303.469L103.718 303.532C97.5988 309.628 91.5322 310.978 90.1755 306.529L90.1554 306.459C88.619 301.298 81.611 302.825 74.5354 309.863" fill="#292929"/>
<path d="M522.534 287.775L521.623 287.09C514.157 281.501 509.384 281.212 510.975 286.442L511.166 287.081C511.946 289.624 514.088 293.066 517.198 296.778C520.25 300.423 523.697 303.721 527.473 306.609L527.619 306.718L528.529 307.404L528.598 307.457C535.472 312.637 542.249 320.748 543.717 325.56L543.858 326.038C544.574 328.385 543.945 329.616 542.085 329.505C540.226 329.395 537.354 327.948 534.017 325.447L533.107 324.762C525.637 319.169 520.862 318.879 522.458 324.112L522.644 324.743C524.234 329.951 531.539 338.695 538.965 344.291L539.084 344.38L566.966 365.261C574.431 370.849 579.206 371.135 577.61 365.9L571.65 346.358C570.056 341.147 562.751 332.402 555.331 326.81L555.212 326.721L554.315 326.045C547.464 320.864 540.871 312.989 539.317 308.143L539.222 307.822C537.659 302.525 530.168 293.531 522.53 287.775" fill="#292929"/>
<path d="M336.875 141.815C330.456 136.978 326.307 136.666 327.621 141.116C328.936 145.567 335.223 153.118 341.642 157.955C348.061 162.792 352.214 163.109 350.898 158.657C349.582 154.205 343.293 146.65 336.874 141.814" fill="#292929"/>
<path d="M384.437 182.703L378.128 177.948C372.568 173.758 368.969 173.484 370.109 177.339L381.531 216.013C382.668 219.866 388.119 226.411 393.679 230.601L424.702 253.979C430.259 258.167 433.856 258.438 432.718 254.586L431.426 250.212C430.288 246.357 424.839 239.814 419.282 235.626L412.973 230.871C408.38 227.411 403.88 222.006 402.941 218.823L396.58 197.286C395.441 193.431 389.992 186.888 384.435 182.701" fill="#292929"/>
<path d="M421.712 110.654L398.424 93.1052L400.176 99.0364C400.185 99.0651 400.947 101.806 399.024 101.55C398.351 101.362 397.727 101.028 397.198 100.572C396.886 100.338 396.558 100.067 396.22 99.7639C395.064 98.7277 393.898 97.7639 392.735 96.887L392.706 96.8658L343.899 60.088L343.87 60.0665C340.534 57.553 337.659 56.0871 335.776 55.9332C333.894 55.7797 333.222 56.9743 333.903 59.3055L333.911 59.3297C335.148 63.5196 331.735 63.6495 325.976 59.637C325.568 59.3531 325.159 59.0556 324.748 58.7463C321.701 56.4173 318.907 53.775 316.412 50.8614C313.536 47.5138 311.508 44.2983 310.837 42.0364L310.795 41.894C309.381 37.1063 302.61 28.9744 295.704 23.7708L295.449 23.5783L295.43 23.5637C292.087 21.045 289.213 19.5792 287.33 19.4326C285.447 19.286 284.784 20.4822 285.466 22.8076L285.508 22.9495C286.922 27.7377 293.69 35.8667 300.595 41.0703L300.674 41.1296C307.023 45.9144 313.25 53.3925 314.551 57.797L319.557 74.748C320.979 79.5428 327.748 87.6718 334.66 92.8806L334.666 92.8861L334.877 93.0456L334.902 93.0644C338.241 95.5809 341.116 97.0489 342.997 97.1956C344.886 97.3471 345.551 96.1547 344.872 93.8233L344.83 93.6833C343.53 89.2809 347.638 89.594 353.984 94.3764L354.237 94.5667L354.248 94.5778C361.152 99.7794 365.627 100.127 364.217 95.3346L364.177 95.2009C362.875 90.7946 366.988 91.1077 373.366 95.9141L397.856 114.368L397.91 114.408C401.646 117.224 404.829 118.73 406.629 118.527L406.636 118.527C408.154 118.518 408.665 117.412 408.074 115.409L408.041 115.308C407.864 114.8 406.541 110.503 414.324 115.948C420.663 120.682 424.758 120.969 423.462 116.58L421.712 110.654Z" fill="#292929"/>
<path d="M329.231 95.627L328.989 95.4457L304.7 77.1428C297.53 71.7416 292.881 71.3879 294.347 76.3623C294.963 78.45 294.371 79.5293 292.682 79.4C290.993 79.2707 288.4 77.9528 285.394 75.6855L285.388 75.68C284.2 74.7851 282.994 73.7772 281.798 72.6801L280.574 71.5574L286.095 90.2493L315.016 112.042C322.189 117.444 326.83 117.793 325.366 112.82C324.75 110.734 325.342 109.655 327.035 109.787C328.728 109.918 331.314 111.235 334.318 113.499L334.324 113.504L334.767 113.838C341.921 119.161 346.44 119.361 344.844 114.29C344.071 111.831 341.995 108.518 338.997 104.957C336.094 101.5 332.819 98.3714 329.233 95.6284" fill="#292929"/>
<path d="M472.452 258.588C465.136 253.075 460.444 252.864 461.997 258.117L466.736 274.166C468.234 279.238 475.404 287.85 482.721 293.362C490.037 298.875 494.77 299.234 493.271 294.162L488.531 278.114C486.98 272.861 479.769 264.103 472.452 258.59" fill="#292929"/>
<path d="M332.309 159.264C325.89 154.426 321.772 154.237 323.133 158.845L323.837 161.23C325.152 165.681 331.443 173.236 337.862 178.073C344.281 182.91 348.43 183.222 347.116 178.772L346.411 176.387C345.052 171.777 338.725 164.098 332.309 159.264Z" fill="#292929"/>
<path d="M429.692 148.37L429.676 148.358C423.217 143.489 419.03 143.168 420.342 147.638C421.654 152.109 427.993 159.731 434.462 164.611L434.48 164.625C440.94 169.494 445.125 169.816 443.811 165.342C442.487 160.865 436.157 153.255 429.692 148.37Z" fill="#292929"/>
<path d="M491.698 226.648L489.789 224.799C490.05 224.962 490.312 225.123 490.563 225.27L492.683 227.36L492.391 227.145C492.156 226.973 491.926 226.81 491.699 226.65M463.027 142.383L438.364 123.798C434.75 121.075 431.524 119.448 429.509 119.327C427.527 119.212 426.87 120.519 427.655 123.006C429.263 128.071 436.386 136.577 443.54 141.968L468.257 160.593C474.582 165.363 480.786 172.815 482.091 177.208C483.593 182.268 490.744 190.856 498.037 196.359C501.28 198.836 504.234 201.668 506.845 204.804C509.456 207.939 511.241 210.839 511.866 212.964C513.156 217.344 509.066 217.036 502.74 212.274C495.452 206.789 490.732 206.434 492.214 211.477L495.39 222.23C496.594 226.306 493.175 226.323 487.578 222.33L477.039 211.943L476.99 211.777L476.627 211.503C476.372 211.139 476.105 210.774 475.824 210.397L475.591 210.091C472.686 206.334 469.305 202.971 465.531 200.087C462.594 197.874 460.019 196.528 458.284 196.303C456.558 196.08 455.822 196.98 456.212 198.84L463.56 223.811L463.574 223.849C464.205 225.623 464.034 226.513 463.059 226.491C462.078 226.478 460.435 225.588 459.222 224.841C458.412 224.345 457.572 223.778 456.757 223.181L436.951 208.256C436.085 207.586 435.194 206.849 434.297 206.057C432.575 204.57 430.973 202.948 429.508 201.208C427.967 199.308 427.044 197.621 426.692 196.057L418.514 168.359C417.176 163.889 410.878 156.334 404.463 151.499L404.428 151.473C403.747 150.964 403.074 150.488 402.428 150.062L402.301 149.967L401.256 149.337C401.063 149.222 400.903 149.137 400.731 149.044L400.41 148.875L400.415 148.875L400.14 148.725C399.951 148.628 399.771 148.541 399.605 148.467L399.189 148.281C399.062 148.221 398.931 148.171 398.797 148.129L398.598 148.046C398.484 148 398.368 147.961 398.249 147.927L397.988 147.849L397.912 147.833L397.882 147.825L397.54 147.745L397.245 147.703L397.221 147.703L397.197 147.697L396.962 147.652C396.849 147.632 396.733 147.626 396.618 147.634L396.486 147.622C396.431 147.622 396.376 147.627 396.322 147.637C396.301 147.639 396.28 147.644 396.259 147.65C396.224 147.656 396.187 147.663 396.146 147.667L396.074 147.687L396.052 147.69L396.022 147.688L395.955 147.638L395.772 147.708C395.757 147.715 395.739 147.718 395.722 147.727C395.688 147.735 395.655 147.745 395.623 147.757L395.595 147.781L395.554 147.799L395.489 147.826C395.465 147.843 395.439 147.857 395.412 147.868L395.389 147.878C395.343 147.9 395.301 147.928 395.265 147.962L395.246 147.981L395.235 147.996C395.212 148.004 395.192 148.019 395.177 148.039C395.162 148.059 395.154 148.083 395.152 148.107L394.984 148.309L394.978 148.355C394.977 148.369 394.974 148.382 394.968 148.394C394.963 148.406 394.955 148.416 394.945 148.425L394.917 148.453C394.902 148.481 394.889 148.51 394.879 148.54L394.87 148.567C394.857 148.596 394.844 148.627 394.831 148.658L394.8 148.769L394.812 148.809C394.807 148.869 394.805 148.937 394.804 148.993C394.803 149.024 394.8 149.055 394.795 149.086C394.775 149.143 394.767 149.204 394.772 149.264C394.77 149.414 394.792 149.563 394.836 149.706C394.837 149.734 394.84 149.764 394.844 149.794L394.847 149.827C394.848 149.848 394.85 149.872 394.849 149.894L394.856 149.95C394.906 150.198 394.969 150.443 395.045 150.684L403.202 178.302C404.518 182.756 410.816 190.321 417.242 195.163L417.371 195.261L417.538 195.385C419.03 196.521 420.437 197.763 421.748 199.104C424.46 201.874 426.397 204.7 427.514 207.508C428.867 211.964 435.158 219.51 441.543 224.326L461.388 239.28C467.744 244.058 471.9 244.39 470.65 240.015C470.259 237.752 471.155 237.063 473.31 237.962C474.661 238.58 475.934 239.356 477.103 240.273C477.175 240.326 477.247 240.381 477.319 240.437L477.424 240.515C483.852 245.353 488.007 245.665 486.69 241.207L482.822 228.248C481.319 223.209 485.799 223.281 492.813 228.409C493.004 228.55 493.2 228.698 493.395 228.843C494.774 229.885 496.166 231.052 497.538 232.308L500.155 234.843C501.208 235.922 502.228 237.04 503.187 238.172C503.24 238.234 503.294 238.297 503.343 238.357L503.438 238.469L503.447 238.478C506.362 241.912 509.636 245.024 513.214 247.76L513.219 247.766C520.514 253.263 525.233 253.62 523.74 248.558C522.455 244.18 526.552 244.49 532.869 249.25L532.935 249.3C540.195 254.77 544.895 255.128 543.41 250.093L533.273 215.772C531.771 210.711 524.62 202.121 517.327 196.622L492.795 178.136C486.472 173.368 480.268 165.915 478.967 161.526C477.461 156.462 470.31 147.875 463.021 142.377" fill="#292929"/>
<path d="M370.289 152.057L361.76 145.629C356.82 141.907 353.622 141.665 354.634 145.09L356.38 151.004C357.392 154.429 362.234 160.247 367.177 163.969L375.706 170.396C380.646 174.119 383.842 174.361 382.831 170.935L381.084 165.022C380.072 161.596 375.23 155.78 370.289 152.057Z" fill="#292929"/>
<path d="M533.172 276.402C526.804 271.602 522.683 271.288 523.987 275.704L524.063 275.958C525.365 280.372 531.608 287.867 537.976 292.666C544.345 297.465 548.461 297.775 547.158 293.362L547.083 293.107C545.779 288.692 539.538 281.198 533.172 276.402Z" fill="#292929"/>
<path d="M215.448 417.19L215.445 417.187C208.265 411.782 196.893 412.897 190.085 419.674L167.056 442.617C164.128 445.496 160.296 447.277 156.207 447.658C152.278 448.124 148.318 447.094 145.113 444.775L145.111 444.773C143.663 443.722 142.474 442.355 141.636 440.775C140.797 439.195 140.331 437.444 140.273 435.657C140.159 432.044 141.671 428.487 144.528 425.64C151.327 418.862 151.027 408.94 143.859 403.528L119.585 385.237L119.351 385.061C112.278 379.731 101.062 380.723 94.2005 387.339C87.2684 394.029 87.3732 403.964 94.4366 409.496C94.5098 409.553 94.5836 409.61 94.6578 409.667C94.7317 409.722 94.8052 409.776 94.8759 409.826L94.8787 409.829C101.086 414.507 101.349 423.084 95.4664 428.95L95.4605 428.956C88.6658 435.737 88.9684 445.655 96.1331 451.066L144.709 487.669C151.888 493.07 163.267 491.954 170.075 485.182L216.129 439.299C219.423 436.012 221.168 431.902 221.04 427.729C220.974 425.662 220.435 423.638 219.466 421.812C218.498 419.985 217.124 418.405 215.45 417.191" fill="#292929"/>
<path d="M428.602 276.076L428.586 276.065L428.349 275.886L428.341 275.878C421.435 270.674 410.484 271.744 403.932 278.268L403.74 278.46C397.7 284.478 387.602 285.47 381.229 280.667C374.856 275.864 374.589 267.063 380.629 261.045L380.842 260.833C384.01 257.664 385.679 253.707 385.547 249.688C385.478 247.705 384.957 245.763 384.026 244.011C383.094 242.259 381.775 240.742 380.168 239.576L380.137 239.553L331.312 202.76L331.306 202.755C324.398 197.549 313.447 198.62 306.894 205.143L306.661 205.376C303.498 208.549 301.836 212.505 301.973 216.525C302.044 218.504 302.565 220.44 303.496 222.188C304.427 223.935 305.743 225.448 307.346 226.611L307.39 226.644L331.913 245.124L331.916 245.127C338.264 249.911 338.536 258.685 332.517 264.682L332.316 264.882C329.148 268.05 327.473 272.008 327.603 276.026C327.67 278.013 328.189 279.958 329.121 281.713C330.054 283.468 331.375 284.987 332.984 286.155L332.999 286.167L333.236 286.345L333.242 286.35C334.722 287.424 335.938 288.821 336.797 290.436C337.655 292.051 338.132 293.84 338.192 295.668C338.305 299.364 336.766 302.999 333.849 305.905L333.633 306.12C330.471 309.287 328.798 313.248 328.934 317.264C329.002 319.247 329.521 321.189 330.454 322.941C331.385 324.693 332.704 326.209 334.311 327.373L334.339 327.395L334.551 327.555L334.559 327.563C337.904 330.084 342.281 331.223 346.89 330.777C351.44 330.354 355.706 328.376 358.968 325.177L382.178 302.055C388.208 296.08 398.247 295.113 404.604 299.904L404.652 299.94C407.997 302.461 412.374 303.6 416.986 303.15C421.536 302.728 425.801 300.75 429.061 297.549L429.262 297.348C432.433 294.183 434.108 290.225 433.979 286.208C433.914 284.221 433.395 282.276 432.462 280.521C431.53 278.765 430.208 277.246 428.599 276.08" fill="#292929"/>
<path d="M474.061 398.035L449.413 379.462L449.402 379.45C446.035 376.913 441.626 375.766 436.99 376.218C432.399 376.642 428.096 378.639 424.808 381.87L424.617 382.061C418.555 388.111 408.411 389.114 401.983 384.281L377.737 366.011L377.729 366.002C370.773 360.761 359.748 361.839 353.132 368.42L352.938 368.614C346.876 374.664 336.732 375.667 330.31 370.833L305.657 352.256L305.649 352.248C298.693 347.006 287.668 348.084 281.063 354.653L257.673 377.957C254.477 381.141 252.784 385.122 252.905 389.169C252.969 391.176 253.491 393.142 254.432 394.916C255.373 396.69 256.708 398.225 258.334 399.403L258.537 399.556L258.548 399.567C265.501 404.806 276.519 403.728 283.136 397.148L283.333 396.95C286.35 393.985 290.296 392.151 294.507 391.755C298.563 391.272 302.652 392.335 305.961 394.732L330.62 413.313L330.628 413.322C337.584 418.563 348.606 417.488 355.225 410.904L355.42 410.71C358.435 407.742 362.381 405.906 366.593 405.509C370.651 405.031 374.739 406.095 378.048 408.491L378.253 408.646L378.258 408.651C385.215 413.893 396.243 412.817 402.856 406.234L403.05 406.04C406.066 403.072 410.014 401.236 414.227 400.841C418.275 400.36 422.356 401.417 425.662 403.803L449.721 421.933L449.726 421.938C451.218 423.02 452.443 424.429 453.306 426.056C454.17 427.684 454.65 429.487 454.711 431.328C454.824 435.051 453.273 438.714 450.317 441.659L450.126 441.85C443.522 448.425 443.806 458.041 450.782 463.302L450.983 463.455L450.992 463.463C457.948 468.705 468.974 467.628 475.586 461.044L475.78 460.85C478.978 457.666 480.675 453.684 480.554 449.636C480.491 447.629 479.969 445.663 479.027 443.889C478.086 442.115 476.751 440.58 475.124 439.403L475.119 439.397C468.722 434.577 468.446 425.74 474.529 419.677L474.72 419.485C477.916 416.301 479.612 412.317 479.491 408.27C479.427 406.263 478.905 404.297 477.963 402.523C477.022 400.749 475.687 399.214 474.061 398.036" fill="#292929"/>
<path d="M405.484 508.38C398.449 503.079 387.301 504.175 380.634 510.817C373.967 517.459 374.265 527.174 381.299 532.475C388.334 537.776 399.474 536.68 406.143 530.039C412.808 523.394 412.514 513.678 405.483 508.379" fill="#292929"/>
<path d="M440.307 473.67C433.272 468.369 422.128 469.461 415.46 476.104C408.792 482.747 409.09 492.461 416.125 497.762C423.16 503.063 434.299 501.968 440.969 495.326C447.634 488.681 447.338 478.968 440.306 473.669" fill="#292929"/>
<path d="M265.441 460.949C258.409 455.65 247.265 456.742 240.598 463.386C233.931 470.03 234.226 479.747 241.257 485.045C248.289 490.344 259.437 489.249 266.103 482.605C272.769 475.962 272.474 466.249 265.441 460.949" fill="#292929"/>
<path d="M374.97 537.992L374.968 537.989C367.79 532.58 356.412 533.696 349.608 540.476L326.582 563.416C323.653 566.294 319.821 568.074 315.732 568.457C311.803 568.922 307.843 567.892 304.638 565.571L304.635 565.569C303.188 564.518 301.999 563.151 301.16 561.571C300.322 559.991 299.856 558.24 299.799 556.452C299.685 552.84 301.197 549.283 304.054 546.436C310.852 539.652 310.549 529.734 303.372 524.326L279.086 506.024C271.908 500.616 260.533 501.729 253.722 508.508C246.912 515.288 247.215 525.207 254.398 530.621L254.403 530.627C260.61 535.304 260.873 543.882 254.988 549.745L254.982 549.75C248.19 556.534 248.49 566.45 255.657 571.863L304.233 608.467C311.41 613.865 322.789 612.75 329.596 605.978L375.649 560.099C378.943 556.811 380.69 552.703 380.564 548.526C380.497 546.46 379.958 544.437 378.988 542.611C378.019 540.784 376.645 539.204 374.971 537.991" fill="#292929"/>
<path d="M277.516 249.925L277.33 249.784C270.093 244.33 258.622 245.455 251.761 252.291L251.585 252.467C244.726 259.3 245.031 269.299 252.269 274.753L252.456 274.893C258.723 279.616 258.986 288.278 253.046 294.2C247.105 300.121 237.163 301.093 230.897 296.371L230.711 296.231C223.474 290.777 212.003 291.902 205.144 298.735L158.063 345.642C151.258 352.488 151.561 362.512 158.753 367.989L158.936 368.126C166.173 373.58 177.644 372.456 184.503 365.622L195.53 354.636L195.57 354.666L208.223 342.059C214.165 336.139 224.098 335.165 230.369 339.89L230.552 340.028C237.789 345.482 249.259 344.357 256.121 337.522L256.297 337.345C262.239 331.425 272.175 330.448 278.446 335.174L278.632 335.314C285.866 340.765 297.334 339.643 304.195 332.807L304.407 332.595C311.269 325.759 310.96 315.763 303.726 310.312L278.785 291.517C272.517 286.795 272.254 278.132 278.195 272.211C285.056 265.375 284.754 255.378 277.516 249.925" fill="#292929"/>
<path d="M556.547 374.85L483.685 319.945C476.506 314.545 465.13 315.658 458.322 322.429L435.293 345.372C428.492 352.154 428.792 362.071 435.969 367.479L435.972 367.482C443.15 372.89 454.528 371.774 461.333 364.994C467.221 359.139 477.067 358.174 483.281 362.845L507.567 381.146C513.768 385.829 514.031 394.413 508.151 400.275C501.35 407.057 501.65 416.973 508.827 422.382L508.83 422.385C512.307 425.004 516.863 426.19 521.652 425.721C526.377 425.281 530.805 423.224 534.193 419.899L557.224 396.958C564.019 390.177 563.713 380.262 556.546 374.851" fill="#292929"/>
<path d="M374.15 453.354C366.833 447.841 355.239 448.978 348.303 455.888L326.359 477.752C319.177 484.907 319.282 495.211 326.599 500.724C333.915 506.237 345.713 504.901 352.894 497.747L374.84 475.883C381.776 468.973 381.467 458.866 374.151 453.353" fill="#292929"/>
</g>
<defs>
<clipPath id="clip0_39_37">
<rect width="582" height="615" fill="white"/>
</clipPath>
</defs>
</svg>
