<svg width="80" height="80" viewBox="0 0 80 80" fill="none" xmlns="http://www.w3.org/2000/svg">
<path d="M37.5178 61.9664C37.5178 63.9308 35.8726 65.5269 33.8346 65.5269C31.7965 65.5269 30.1514 63.9308 30.1514 61.9664C30.1514 60.0021 31.7965 58.406 33.8346 58.406C35.8726 58.406 37.5178 60.0021 37.5178 61.9664Z" fill="white"/>
<path d="M58.9414 12.7716H59.0642H63.1157C65.252 12.7716 66.9831 11.0527 66.9831 8.91648V8.8551C66.9831 6.71883 65.252 5 63.1157 5H46.9587C44.8224 5 43.0913 6.71883 43.0913 8.8551V8.91648C43.0913 11.1878 41.2497 13.0171 38.9784 13.0171C36.7071 13.0171 34.8655 11.1878 34.8655 8.91648V8.8551C34.8655 6.71883 33.1344 5 30.9981 5H30.9367C28.8004 5 27.0693 6.71883 27.0693 8.8551V8.91648C27.0693 11.0527 28.8004 12.7716 30.9367 12.7716C33.208 12.7716 35.0496 14.6009 35.0496 16.8722V24.963C35.0496 27.0993 36.7807 28.8181 38.917 28.8181H38.9784C41.1147 28.8181 42.8458 27.0993 42.8458 24.963V24.9016C42.8458 22.6303 44.6874 20.801 46.9587 20.801H47.0201C49.1563 20.801 50.8874 19.0822 50.8874 16.9459V16.8845C50.8874 14.6132 52.7291 12.7839 55.0004 12.7839H58.9414V12.7716Z" fill="white"/>
<path d="M68.0275 49.8989H64.0128C61.7905 49.8989 59.998 48.0941 59.998 45.8842C59.998 43.662 61.8028 41.8695 64.0128 41.8695C66.235 41.8695 68.0275 40.0647 68.0275 37.8548V29.8254C68.0275 27.6032 66.2227 25.8107 64.0128 25.8107C61.7905 25.8107 59.998 24.0059 59.998 21.796C59.998 19.5737 61.8028 17.7812 64.0128 17.7812H72.0544C74.2766 17.7812 76.0691 19.586 76.0691 21.796V45.8842C76.0691 48.1064 74.2644 49.8989 72.0544 49.8989H68.0275Z" fill="white"/>
<path d="M68.0272 69.9852C68.0272 72.2074 66.2225 73.9999 64.0125 73.9999H47.9415C45.7192 73.9999 43.9268 72.1951 43.9268 69.9852V53.9141C43.9268 51.6919 45.7315 49.8994 47.9415 49.8994C50.1637 49.8994 51.9562 51.7042 51.9562 53.9141V61.9435C51.9562 64.1657 53.7609 65.9582 55.9709 65.9582C58.1931 65.9582 59.9856 64.1534 59.9856 61.9435C59.9856 59.7213 61.7903 57.9288 64.0003 57.9288H72.0542C74.2764 57.9288 76.0689 59.7336 76.0689 61.9435C76.0689 64.1657 74.2642 65.9582 72.0542 65.9582C69.832 65.9705 68.0272 67.763 68.0272 69.9852Z" fill="white"/>
<path d="M59.9971 35.1546V37.8679C59.9971 40.0656 58.2169 41.8458 56.0192 41.8458H47.9162C45.7185 41.8458 43.9383 43.626 43.9383 45.8236V45.885C43.9383 48.0827 42.1581 49.8629 39.9604 49.8629H31.9924C29.7948 49.8629 28.0145 51.6431 28.0145 53.8408V53.9022C28.0145 56.0998 26.2343 57.88 24.0367 57.88H15.9336C13.736 57.88 11.9557 56.0998 11.9557 53.9022V53.8408C11.9557 51.6431 10.1755 49.8629 7.97787 49.8629C5.78022 49.8629 4 48.0827 4 45.885V45.8236C4 43.626 5.78022 41.8458 7.97787 41.8458H8.03926C10.2369 41.8458 12.0171 43.626 12.0171 45.8236V45.885C12.0171 48.0827 13.7973 49.8629 15.995 49.8629H23.9016C26.0993 49.8629 27.8795 48.0827 27.8795 45.885V45.8236C27.8795 43.626 29.6597 41.8458 31.8574 41.8458H31.9188C34.1164 41.8458 35.8966 40.0656 35.8966 37.8679V37.8065C35.8966 35.6089 37.6768 33.8286 39.8745 33.8286H47.9776C50.1752 33.8286 51.9554 32.0484 51.9554 29.8508V29.7894C51.9554 27.5917 53.7357 25.8115 55.9333 25.8115H55.9947C58.1923 25.8115 59.9726 27.5917 59.9726 29.7894L59.9971 35.1546Z" fill="white"/>
<path d="M29.2177 14.6877C27.3515 14.6877 25.8292 16.2101 25.8292 18.0763V36.2959C25.8783 37.0694 25.6941 37.6833 25.2889 38.113C24.5032 38.9478 23.1281 38.9601 23.1036 38.9601H17.0999C17.0877 38.9601 15.7003 38.9478 14.9146 38.113C14.5094 37.671 14.3252 37.0694 14.3744 36.2959V24.2027C14.3744 22.3365 12.852 20.8142 10.9858 20.8142C10.7771 20.8142 10.5806 20.8387 10.3719 20.8755H10.3474C10.2614 20.9001 10.1632 20.9247 10.0773 20.9492C10.065 20.9492 10.0527 20.9615 10.0404 20.9615C9.9545 20.986 9.86856 21.0229 9.78262 21.0474C9.77034 21.0474 9.75806 21.0597 9.73351 21.0597C9.65984 21.0965 9.56162 21.1334 9.48796 21.1702C9.47568 21.1825 9.4634 21.1825 9.43885 21.1948C9.36519 21.2439 9.27924 21.2684 9.21786 21.3298C9.20558 21.3421 9.1933 21.3421 9.16875 21.3544C9.09508 21.4035 9.02142 21.4526 8.94775 21.5017C8.93548 21.514 8.9232 21.5262 8.89865 21.5385C8.82498 21.5999 8.76359 21.649 8.68993 21.7104C8.67765 21.7227 8.66537 21.735 8.64082 21.7472C8.57943 21.8086 8.51805 21.8577 8.45666 21.9314C8.44438 21.9437 8.43211 21.9682 8.40755 21.9805C8.34616 22.0419 8.30933 22.1033 8.24794 22.1769C8.23567 22.2015 8.22339 22.2138 8.19883 22.2383C8.14972 22.312 8.11289 22.3611 8.06378 22.4348C8.05151 22.4593 8.03923 22.4839 8.01467 22.5084C7.97784 22.5821 7.94101 22.6312 7.90418 22.7049C7.8919 22.7417 7.86735 22.7663 7.85507 22.7908C7.81824 22.8645 7.79368 22.9136 7.76913 22.9873C7.75685 23.0241 7.74457 23.0609 7.72002 23.0977C7.69546 23.1591 7.67091 23.2205 7.64635 23.2819C7.63407 23.331 7.6218 23.3679 7.60952 23.4292C7.59724 23.4906 7.57269 23.5397 7.56041 23.6011C7.54813 23.6625 7.53586 23.7239 7.53586 23.7976C7.52358 23.8467 7.52358 23.8835 7.5113 23.9326C7.49902 24.0431 7.49902 24.1536 7.49902 24.2641V36.3205C7.49902 38.1866 9.02142 39.709 10.8876 39.709H10.9244C11.17 39.6968 13.3431 39.6722 13.6132 42.4346C13.6254 44.2885 15.1356 45.7986 17.0017 45.7986H23.0054C24.8592 45.7986 26.3816 44.2885 26.3939 42.4346C26.6517 39.6722 28.8371 39.6968 29.0827 39.709H29.1195C30.9856 39.709 32.508 38.1866 32.508 36.3205V18.0886C32.594 16.1979 31.0839 14.6877 29.2177 14.6877Z" fill="white"/>
<path d="M17.0757 21.4893C18.9542 21.4893 20.4765 19.9546 20.4765 18.0762C20.4765 16.1978 18.9542 14.6631 17.0757 14.6631C15.1973 14.6631 13.6749 16.1978 13.6749 18.0762C13.6626 19.9669 15.1973 21.4893 17.0757 21.4893Z" fill="white"/>
</svg>
